<svg id="Layer_1" data-name="Layer 1" xmlns="http://www.w3.org/2000/svg" viewBox="0 0 485.33 253.17"><defs><style>.cls-1{fill:#8155a3;}.cls-2{fill:#f9f2f7;}.cls-3{fill:#cb4181;}.cls-4{fill:#8f52a0;}.cls-5{fill:#7a3590;}.cls-6{fill:#632461;}.cls-7{fill:#fff;}.cls-8{fill:#db3a93;}.cls-9{fill:#ca4197;}.cls-10{fill:#eb328d;}.cls-11{fill:#a14c9d;}.cls-12{fill:#903f97;}.cls-13{fill:#ededed;}.cls-14{fill:#bb479a;}.cls-15{fill:#753358;}.cls-16{fill:#9d2871;}</style></defs><path class="cls-1" d="M638.75,435.92c.27,1.28.55,2.55.82,3.83,2.3,13.55-.34,26.29-6.73,38.44l.06,0c-22.47,28.07-53,35.17-87.78,31.29,5.78-3.07,12-.81,18-1.42,5.19-.53,10-6.89,8.36-11.66C567.24,484.18,557.76,477,546,472c-2.83-1.2-7-.93-7.14-5.48,3.56.61,6.86-1.79,10.57-.64,1.62.5,3-1.18,3-2.68,0-4.81,1.7-9.82-1.66-14.36-1.25-1.71-2.62-3.38-1.94-6,2.22-8.67,2.76-17.59,3.94-26.41,1.62-12.17-.33-24.35,1-36.58.69-6.24,1.46-14-5.52-18.9l-2-1c-1.67-2.88-4.5-1.57-6.9-1.72-7.13-.44-10.71,1.76-9.81,9.68.86,7.53,0,15.23,0,22.85-3,2.59-.91,6-1.53,8.91-4.47-.45-8.81-1.13-10.8-5.83,3.39-.52,8.63-.27,8.79-3.82.21-4.66,2.1-10.68-3.93-14.07a2,2,0,0,1-.28-1.28l-1.44-1.72c-4.71-8-11.44-12.84-21.32-12.53-3.51.1-7,.75-10.49,1.15-1-4.14.5-10.06-7.18-9.59,1.25-3,2.34-5.91-.59-8.63a6.45,6.45,0,0,0-7-1.16c-3.72,1.64-2.64,5.21-2.32,8.28-6.92-3.65-1.92-7.81-.06-11.33.7-1.32,3-1.86,1.26-3.82-4.46-5.11-3.74-14.89-14.16-14.65l.23-1.16a6.93,6.93,0,0,0,1.48-.35,2.63,2.63,0,0,0,3-1.19l.06,0a3.23,3.23,0,0,0,3.05-1.45l0,0a21.36,21.36,0,0,0,9.11-4.48l3.22-1.56,2.1-1.18,11.78-5.05c11-4.42,22.67-1.75,34-2.83h3.06c21.53,4.69,38.38,14.89,45.93,36.06.24,1.45.47,2.91.7,4.37v2.88c0,11.45-5.47,22.45-3.06,34.1.13,4.63,2.37,8,5.84,11.24,6.48,6.07,15,6.4,22.86,8.6,8.73,2.76,16,7.83,23,13.34l-.1-.07a1,1,0,0,0,.74,1.07A77.52,77.52,0,0,1,638.75,435.92Zm-39.91,52.62c-.46-3.05-1.68-5.53-5.52-5.77s-5.88,2-6.11,5.21,1.94,5.73,5.44,6S598.16,492,598.84,488.54ZM540,323.7c1.92-.56,3.5-1.49,3.54-4s-1-4-3.39-4.12c-2.71-.15-4.28,1.43-4.22,4.12C536,322.08,537.53,323.19,540,323.7Z" transform="translate(-157.15 -301.3)"/><path class="cls-2" d="M632.84,478.19c6.39-12.15,9-24.89,6.73-38.44l2.67,2.91c1,11.94-1.38,23.74-1.54,35.64h0Z" transform="translate(-157.15 -301.3)"/><path class="cls-3" d="M161.1,359.83c1.87-1.9,1.18-5.35,4.27-6.51-2.31,7.58-1.08,15.39-1.73,23.08-2.95-3.71-2.61-8.19-3.17-12.46Z" transform="translate(-157.15 -301.3)"/><path class="cls-3" d="M167,518.45l-2.17-3.14-.9-1.27,0-.08q-1.5-5.22-3-10.44c-.18-1.47-.37-2.95-.56-4.42l.09-16.37.78-4.35q1.13-2.47,2.23-5l.69.58c-.4,9.77-2.58,19.42-.35,29.36,1.12,5,4.61,9.53,3.34,15Z" transform="translate(-157.15 -301.3)"/><path class="cls-2" d="M160.4,482.73l-.09,16.37C156.16,493.62,156,488.17,160.4,482.73Z" transform="translate(-157.15 -301.3)"/><path class="cls-2" d="M160.87,503.52q1.49,5.22,3,10.44l-4.55,0C159.91,510.47,157.86,506.64,160.87,503.52Z" transform="translate(-157.15 -301.3)"/><path class="cls-2" d="M488.57,361.51c3.5-.4,7-1.05,10.49-1.15,9.88-.31,16.61,4.57,21.32,12.53l1.44,1.72a2,2,0,0,0,.28,1.28,11.54,11.54,0,0,1-.41,1.3c-1.66,3,.66,6,0,9l0-.35-14.55,3.29-1.71-1.46c0-3.75,1.4-7.71-3-10.47a7.75,7.75,0,0,0-9.13.45c-3.63,2.6-5.32,6.54-3.86,10.95a27,27,0,0,0,9.36,12.67c7.15,8.07,16.76,14.06,21.78,23.92,5.75,10.9,2.61,20.89-3.35,30.6l-3.34,3c-10.61,5.74-21.42,8-32.72,1.76l-.57-.17-1.73-1.7-1.31-1.28-3.15-4.28c-.18-.86-.19-1.85-1.47-1.93L473,451l-1-8.37c.36-2.45.19-5.2,3.63-5.89,7.15-1.32,13.75-2.59,14,8.13.06,2.46,4.27,6.16,9.13,4.68,4.41-1.35,7.6-3,8-8.44.55-8-4.31-12.63-9.37-17.54-7.53-7.32-15.2-14.52-21.52-22.9-.71-1.86-1.43-3.71-2.14-5.56-1.78-6.35-.63-12.59.69-18.83l7.53-10.43,1.76-1.66,0,.22a1.51,1.51,0,0,0,1.15-.53l1.72-1,1.83-1.33Z" transform="translate(-157.15 -301.3)"/><path class="cls-4" d="M481.94,365.84l-7.53,10.43-8.12-9.39-1.79.21c-5.77-2.58-11.39-3.47-16.55,1.27-2.68,2.1-1.6,5-1.62,7.59-.11,12.56,0,25.12-.1,37.68,0,1.55.87,4-1.53,4.35-2.8.35-2.64-2.22-3.05-4.12-2.2-10.21-1.7-20.56-1.42-30.84.15-5.27-1.48-9.08-6.17-11.69l-1.9-1.57c-2.23-4.32-6-1.11-9-1.72,0-2.93-.12-5.75,1.92-8.41,2.32-3,1.2-5.51-2.33-7-5.65-2.41-7.14-5.68-1.65-9.83-8.28-3.37-16.87-3.41-24.26-7.29a11.14,11.14,0,0,0,.15-1.16l3.11-.45c2.13.18,4.24.28,6.05-1.12l4.74-.36a3.82,3.82,0,0,0,3.62-.89l4-.59c13.86-1.57,26.78-6.49,40-10.31,10.42-.24,9.7,9.54,14.16,14.65,1.72,2-.56,2.5-1.26,3.82-1.86,3.52-6.86,7.68.06,11.33,2.85,3.27,6.09,4.18,9.92,1.51,7.68-.47,6.14,5.45,7.18,9.59h-.19a1.54,1.54,0,0,0-1.83,1.34l-1.72,1c-1.06-1.17-1.18-.46-1.15.53l0-.22Z" transform="translate(-157.15 -301.3)"/><path class="cls-4" d="M538.87,466.48c.1,4.55,4.31,4.28,7.14,5.48,11.75,5,21.23,12.22,25.48,24.41,1.67,4.77-3.17,11.13-8.36,11.66-6,.61-12.23-1.65-18,1.42-15.75-.73-31-4.19-46.31-7.52,1.54-1.89,3.74-1.14,5.71-1.37s4.68,2.1,6.09-1c1.21-2.65-.89-4.43-1.87-6.67-3.3-7.52-9.76-13.09-13.1-20.51,9.49.23,19.77-2.66,26.81,7.3-2.57-7.58.74-14.15,8.69-17.73a7.71,7.71,0,0,1,1.34.33C534.22,464.22,535.85,466.33,538.87,466.48Z" transform="translate(-157.15 -301.3)"/><path class="cls-2" d="M529.57,390.7c.07-7.62.88-15.32,0-22.85-.9-7.92,2.68-10.12,9.81-9.68,2.4.15,5.23-1.16,6.9,1.72.26,24.46-1.84,48.84-2.89,73.26l-7.63,2.16c-2.83-1.13-3.17-3.59-3.5-6.06-.17-1.54-.33-3.08-.5-4.62.07-.23.25-.5.19-.7a9.6,9.6,0,0,0-.63-1.29l-.15-5.21-.12-3q-.3-6-.59-12a2.71,2.71,0,0,0-.63-3.06h0C529.76,396.49,529.67,393.59,529.57,390.7Z" transform="translate(-157.15 -301.3)"/><path class="cls-4" d="M531.07,414.42l.12,3c-1.94,4.14-3.83,8.27,1.09,11.82.33,2.47.67,4.93,3.5,6.06.16,3.62,3.4,2.8,5.5,3.37,3.86,1.06,1.46,2.82.74,4.43-2.47,1.45-5.16,1.07-7.83.85-5.52-3.53-4.59-10.74-9.11-14.84-1.41-1.44-1.33-4.5-4.6-3.93-5-9.87-14.63-15.86-21.78-23.93-2.17-6.81-4.43-13.63,3.76-18.55,1.47,1.52.3,4.25,2.89,5l1.7,1.46c.14,1.28,1.23,1.53,2.22,1.9,1.47,4.1,6.22-.59,8,2.76,2,4.7,6.33,5.38,10.8,5.83h0C529.67,404.44,524.68,410.51,531.07,414.42Z" transform="translate(-157.15 -301.3)"/><path class="cls-5" d="M542,443.11c.72-1.61,3.12-3.37-.74-4.43-2.1-.57-5.34.25-5.5-3.37l7.63-2.16c4.78-.32,2.87-4,3-6.17,1.09-22,2.31-44.05,1.94-66.11,7,4.87,6.21,12.66,5.52,18.9-1.36,12.23.59,24.41-1,36.58-1.18,8.82-1.72,17.74-3.94,26.41-.68,2.66.69,4.33,1.94,6,3.36,4.54,1.62,9.55,1.66,14.36,0,1.5-1.42,3.18-3,2.68-3.71-1.15-7,1.25-10.57.64-3-.15-4.65-2.26-6.39-4.22,2.8-.12,5.61-.11,8.39-.41,2.23-.25,5.61.84,5.22-3.33,0-3.65-.11-7.3.08-10.93C546.32,444.62,545.44,442.86,542,443.11Z" transform="translate(-157.15 -301.3)"/><path class="cls-6" d="M548.33,360.87c.37,22.06-.85,44.09-1.94,66.11-.11,2.2,1.8,5.85-3,6.17,1.05-24.42,3.15-48.8,2.89-73.26Z" transform="translate(-157.15 -301.3)"/><path class="cls-2" d="M481.39,351.92c-3.83,2.67-7.07,1.76-9.92-1.51-.32-3.07-1.4-6.64,2.32-8.28a6.45,6.45,0,0,1,7,1.16C483.73,346,482.64,349,481.39,351.92Z" transform="translate(-157.15 -301.3)"/><path class="cls-2" d="M598.84,488.54c-.68,3.45-2.6,5.7-6.19,5.43s-5.69-2.71-5.44-6,2.28-5.44,6.11-5.21S598.38,485.49,598.84,488.54Z" transform="translate(-157.15 -301.3)"/><path class="cls-2" d="M455.55,319.41l3.19,0-.23,1.16c-13.24,3.82-26.16,8.74-40,10.31l0-2.6a32.37,32.37,0,0,0,8.87-1.48C436.6,323.86,446.14,321.82,455.55,319.41Z" transform="translate(-157.15 -301.3)"/><path class="cls-5" d="M517.24,393.78c-1.75-3.35-6.5,1.34-8-2.76,4.08-1.82,10.25,1,12.34-5.19l0,.35c3.22-3,2.5-6,0-9a11.54,11.54,0,0,0,.41-1.3c6,3.39,4.14,9.41,3.93,14.07C525.87,393.51,520.63,393.26,517.24,393.78Z" transform="translate(-157.15 -301.3)"/><path class="cls-2" d="M540,323.7c-2.45-.51-4-1.62-4.07-4-.06-2.69,1.51-4.27,4.22-4.12,2.37.14,3.42,1.79,3.39,4.12S541.9,323.14,540,323.7Z" transform="translate(-157.15 -301.3)"/><path class="cls-2" d="M466.33,316.41c1.25-4.86,5.42-4.21,9.11-4.48A21.36,21.36,0,0,1,466.33,316.41Z" transform="translate(-157.15 -301.3)"/><path class="cls-5" d="M529.57,390.7c.1,2.89.19,5.79.29,8.68l-1.81.24h0C528.66,396.66,526.62,393.29,529.57,390.7Z" transform="translate(-157.15 -301.3)"/><path class="cls-2" d="M463.26,317.88a3.15,3.15,0,0,1,3.05-1.45A3.23,3.23,0,0,1,463.26,317.88Z" transform="translate(-157.15 -301.3)"/><path class="cls-2" d="M460.22,319.1l3-1.19A2.63,2.63,0,0,1,460.22,319.1Z" transform="translate(-157.15 -301.3)"/><path class="cls-2" d="M576.22,341.73c1.33,1,1.34,1.92,0,2.88Z" transform="translate(-157.15 -301.3)"/><path class="cls-7" d="M624.8,411.82c.92-.07,1.74-.08.74,1.07A1,1,0,0,1,624.8,411.82Z" transform="translate(-157.15 -301.3)"/><path class="cls-2" d="M478.66,310.37l2.1-1.18Z" transform="translate(-157.15 -301.3)"/><path class="cls-5" d="M521.82,374.61l-1.44-1.72Z" transform="translate(-157.15 -301.3)"/><path class="cls-8" d="M163.64,376.4c.65-7.69-.58-15.5,1.73-23.08,3-7.12,9.54-11.26,15-16.33,8.44,1,12.14,7.54,16.45,13.18,8,10.46,15.28,21.44,23.76,31.51,3.06,3.63,5.25,6.48,5.18,11.35-.26,20.5-.11,41-.1,61.49-5.72,2.24-8.68,1-7.75-5.51.52-3.61-2.14-5.43-4.35-7.94-5.48-6.21-11.63-12.53-13.78-20.43-1.39-5.12-3.32-6.59-8.09-6.16-3.13-4.32-1.26-11.76-8.92-13.25C177.78,392,168.19,386,163.64,376.4Z" transform="translate(-157.15 -301.3)"/><path class="cls-3" d="M182.76,401.23c7.66,1.49,5.79,8.93,8.92,13.25a26.19,26.19,0,0,1-4.52,17.83l-.39-.36c-.08-.37-.17-.73-.28-1.1.31-1.42.62-2.85.92-4.28,2-5.1,2.18-10.18-.28-15.2-.23-.95-.47-1.89-.7-2.83C186.32,405.58,182.43,404.39,182.76,401.23Z" transform="translate(-157.15 -301.3)"/><path class="cls-9" d="M225.65,454.52c0-20.5-.16-41,.1-61.49.07-4.87-2.12-7.72-5.18-11.35-8.48-10.07-15.77-21.05-23.76-31.51-4.31-5.64-8-12.21-16.45-13.18.15-.41.29-.83.43-1.26l15.58-6c5.81-.05,11-3.78,17-2.75,2.55,2.67,5.33,2.61,9,1.89,4.86-.95,11.72-2.66,14.52.85,3.2,4,6.46,6.13,12.24,7.36-7.08,1.74-4.52,3.8-3,8,3,8.45,14.59,12.5,12.36,23.3-.16.75,1.49,2.67,2.22,2.63,6.5-.35,8.66,5.69,13.27,8-8.17,1.26-13.46,6.64-18.7,12.09l-1.73,1.26.47.06s0,.46,0,.45c-3-1.48-4.49-4.4-6.58-6.73-.5-1.24-1.69-1.41-2.82-1.65-14.2-3.38-15.75-2.3-15.75,10.9q0,30,0,60c0,15.56-2.15,17.73-18.39,18.73.37-4.4,3.93-3,6.45-3.14,6-.31,8.83-3.31,8.82-9Z" transform="translate(-157.15 -301.3)"/><path class="cls-3" d="M174.58,414.6c4.49,3.27,3.43,6.87.14,10-2.91,2.77-6.74,2.95-9.75.23-3.74-3.37-4.17-7.21.21-10.69l.48.48c-.7,2.73-2.5,5.66.63,7.94a5.61,5.61,0,0,0,6.41.05c3.12-2,1.68-5.24,1.87-8Z" transform="translate(-157.15 -301.3)"/><path class="cls-2" d="M187.13,411.37c2.46,5,2.23,10.1.28,15.2C184.33,421.56,184.75,416.48,187.13,411.37Z" transform="translate(-157.15 -301.3)"/><path class="cls-3" d="M165.18,414.15c3.28-2.59,6.44-3,9.4.45h0l-8.91,0Z" transform="translate(-157.15 -301.3)"/><path class="cls-2" d="M186.49,430.85c.11.37.2.73.28,1.1-.39.14-.78.26-1.17.37l-.18-.19C185.78,431.71,186.14,431.28,186.49,430.85Z" transform="translate(-157.15 -301.3)"/><path class="cls-3" d="M163.41,473.41a38,38,0,0,1,6.3-13.26l.5.4A18.44,18.44,0,0,1,164.1,474Z" transform="translate(-157.15 -301.3)"/><path class="cls-3" d="M174.36,452.71c1.88-3.07,2.52-6.92,6-9l.61.49c-1.42,3.39-.89,8-6,9.08Z" transform="translate(-157.15 -301.3)"/><path class="cls-3" d="M185.6,432.32c.39-.11.78-.23,1.17-.37l.39.36c.26,3.85-.76,7.07-4.65,8.91l-.44-.38Z" transform="translate(-157.15 -301.3)"/><path class="cls-3" d="M169.71,460.15a17.54,17.54,0,0,1,4.65-7.44l.61.56a8,8,0,0,1-4.76,7.28Z" transform="translate(-157.15 -301.3)"/><path class="cls-3" d="M180.37,443.7l1.7-2.86.44.38c-.09,1.19-.27,2.34-1.53,3Z" transform="translate(-157.15 -301.3)"/><path class="cls-3" d="M173.15,530.49l-2.22-3.32c.06-.58-.23-.9-.85-.94L167,518.45l.13-.11c2.08,1.11,3.36,2.87,4.71,4.74,6.93,9.63,15.39,18.76,26.41,22.83,12.31,4.55,25.56,9.29,39.58,5.29a4.43,4.43,0,0,1,4.92,1.21c-9.62,3.3-19.51,1.67-29.32,1.53h0l-1.42-.62L202.51,551l-10.63-4.79L190,545.16l-6.13-4.22-.29-.21-1-.84-8.38-8.22Z" transform="translate(-157.15 -301.3)"/><path class="cls-2" d="M191.88,546.25,202.51,551c-2,2.7-4.11-.52-6.17,0l-4.64-1.5Z" transform="translate(-157.15 -301.3)"/><path class="cls-2" d="M183.88,540.94l6.13,4.22C186.89,545.2,183.64,545.42,183.88,540.94Z" transform="translate(-157.15 -301.3)"/><path class="cls-2" d="M170.08,526.23c.62,0,.91.36.85.94A1.81,1.81,0,0,1,170.08,526.23Z" transform="translate(-157.15 -301.3)"/><path class="cls-2" d="M163.89,514l.9,1.27Z" transform="translate(-157.15 -301.3)"/><path class="cls-2" d="M182.58,539.89l1,.84A2.14,2.14,0,0,1,182.58,539.89Z" transform="translate(-157.15 -301.3)"/><path class="cls-2" d="M173.15,530.49l1,1.18Z" transform="translate(-157.15 -301.3)"/><path class="cls-10" d="M242.71,552.41a4.43,4.43,0,0,0-4.92-1.21c-14,4-27.27-.74-39.58-5.29-11-4.07-19.48-13.2-26.41-22.83-1.35-1.87-2.63-3.63-4.71-4.74,1.27-5.46-2.22-10-3.34-15-2.23-9.94-.05-19.59.35-29.36a18.44,18.44,0,0,0,6.11-13.44,8,8,0,0,0,4.76-7.28c5.12-1.11,4.59-5.69,6-9.08,1.26-.63,1.44-1.78,1.53-3,3.89-1.84,4.91-5.06,4.65-8.91a26.19,26.19,0,0,0,4.52-17.83c4.77-.43,6.7,1,8.09,6.16,2.15,7.9,8.3,14.22,13.78,20.43,2.21,2.51,4.87,4.33,4.35,7.94-.93,6.5,2,7.75,7.75,5.51v7.42c0,5.67-2.81,8.67-8.82,9-2.52.13-6.08-1.26-6.45,3.14-2.66,4.47-1.78,8.86.34,13.22.67,2.88,3.53,3.37,5.58,4.74.68,3.33,2.88,5.35,6.29,5.44,9.5.27,18.58-2.31,27.73-4.31,1.43-.4,1.87-3.14,3.54-2.11,2.07,1.28.48,2.91-.5,4.36-1.47,2.17-5.52,2-5.44,6.16,4.19-.39,8.57-1.09,10.48,4.08A12.14,12.14,0,0,0,269.15,514c1.64.18,4,1.6,3.48,2.18-5.25,6.14,2.72,11.45.91,17.24q-1.47,2.31-2.93,4.62l0-.06c-3.12.15-6.16.41-6.21,4.49l0-.12c-3.54,0-7.17-.14-7.74,4.55v-.13c-3.77.09-7.69-.14-9.3,4.28C245.94,551.85,244.51,552.71,242.71,552.41Zm-43.3-90.92c.06-5.39-2-8.58-7.62-8.32s-8.62,3.56-8.64,8.49,3.87,7.54,8.68,7.44S200,466.48,199.41,461.49ZM231.11,536c2.79-.4,3.84-2.14,3.66-4.64s-1.77-3.93-4.47-3.91c-2.85,0-3.11,1.94-3.06,4C227.29,534,228.3,535.68,231.11,536Z" transform="translate(-157.15 -301.3)"/><path class="cls-11" d="M498.81,501.93,451,495.06l-4.68-.21-3.1-.18-36.9-2.17c2.81-5,9.37-.2,12.69-4.57,1.37-1.81,4.17-3.59.73-4.8-9.67-3.38-12.2-10.94-13.76-19.39a2.91,2.91,0,0,0-2.35-2.57A2.33,2.33,0,0,0,401,463.3c-.84,4.23-3.88,6.7-7.2,9H390.6c0-.94,0-1.88-.05-2.81,3.19-1.34,3.28-4,3.28-6.81q0-39,0-78.08c0-2.3.86-5.17-2.86-5.86l-1.53-3c-.41-1.62-1.19-2.86-3.16-2.88-11.57-3.76-15.47-1.36-15.55,9.41-.08,11-.27,22-.41,33-3,3.25-3.65,1.43-4.57-1.59q-4.92-16.19-10.36-32.2c-.53-1.59.19-4.81-3.54-4.06-1.35-3.39-4.44-3.08-7.33-3.18.59-8.8-8.19-12.67-11.14-19.66-4.35-10.3-10.87-18.1-24-17.71-1.21,0-4.66.52-4.86-2.67,25.6,1,51.13,3.65,76.8,2.91,4.17-.43,8.58,1.44,12.52-1.22l3-.41c7.39,3.88,16,3.92,24.26,7.29-5.49,4.15-4,7.42,1.65,9.83,3.53,1.51,4.65,4,2.33,7-2,2.66-1.89,5.48-1.92,8.4-2.69,1.09-6.1-.7-8.39,2-2.82.65-2.39,2.83-2.39,4.76q0,25.59,0,51.16c0,1.92-.45,4.13,2.39,4.75,0,1.06,0,2.12,0,3.18L410,434c-2.1-1.77-4.64-3.12-5.73.45s2,3.69,4.64,3.59c4.09.46,3.25,3.49,3.48,6.05.2,2.18-1.15,5.08,2.54,5.91.92,8.08,5.35,13.84,12.62,17.73-1.89,2.35,1.35,2,1.78,3.08a4.78,4.78,0,0,0,4.64,3c4.13,4.86,8.95,3.66,13.88,1.44l3,0c.57.46,1.11,1.28,1.72,1.33,5.95.49,16.95-6.37,18.27-11.82a9.58,9.58,0,0,1,6.57-7.34l1.31,1.28,1.73,1.7.56.16c1.74,3.21,5,4.61,8.14,6l3.23,1.57c.12,2.08.25,4.15,3.21,4.22,3.34,7.42,9.8,13,13.1,20.51,1,2.24,3.08,4,1.87,6.67-1.41,3.12-4,.77-6.09,1S500.35,500,498.81,501.93Z" transform="translate(-157.15 -301.3)"/><path class="cls-4" d="M475.86,400.66c6.32,8.38,14,15.58,21.52,22.9,5.06,4.91,9.92,9.56,9.37,17.54-.38,5.46-3.57,7.09-8,8.44-4.86,1.48-9.07-2.22-9.13-4.68-.27-10.72-6.87-9.45-14-8.13-7.52-8.18-1.59-18.08-3.56-27A9,9,0,0,1,475.86,400.66Z" transform="translate(-157.15 -301.3)"/><path class="cls-5" d="M434,473.82a4.78,4.78,0,0,1-4.64-3c1.8.13,3.6.18,5.38.4,18,2.29,31.65-8.45,31.78-25.67.2-26.21-.11-52.43-.2-78.64l8.12,9.39c-1.32,6.24-2.47,12.48-.69,18.83-3.66-.09-6.25,1.38-5.67,5.13,1.73,11.17-1,22.26-.25,33.42.24,3.8.87,6.8,4.19,9l1,8.37c-1.45.49-3.16.92-3.38,2.61-1.43,11.08-10.5,16-18.67,21.62l-3,0C443.35,473.61,438.65,473.8,434,473.82Z" transform="translate(-157.15 -301.3)"/><path class="cls-5" d="M492.43,468.14l-3.23-1.57c3.55-.05,7.25.5,10.61-.3,5.23-1.26,12.08-.28,14-7.49l3.34-3c3.73.48,4.56-2.4,5.78-4.72,3.68-7,2.82-14.5,2.17-21.94,4.52,4.1,3.59,11.31,9.11,14.84-2.77.14-4.72.84-4.48,4.21.21,3.09-.13,6.22-.22,9.34-2.79-.29-4.6,1.3-6.75,2.72C513.65,466.25,504.12,471.18,492.43,468.14Z" transform="translate(-157.15 -301.3)"/><path class="cls-12" d="M472,442.62c-3.32-2.17-3.95-5.17-4.19-9-.72-11.16,2-22.25.25-33.42-.58-3.75,2-5.22,5.67-5.13.71,1.85,1.43,3.7,2.14,5.56a9,9,0,0,0-3.8,9c2,8.95-4,18.85,3.56,27C472.18,437.42,472.35,440.17,472,442.62Z" transform="translate(-157.15 -301.3)"/><path class="cls-5" d="M505.35,387.66c-2.59-.7-1.42-3.43-2.89-5-8.19,4.92-5.93,11.74-3.76,18.55a27,27,0,0,1-9.36-12.67c-1.46-4.41.23-8.35,3.86-10.95a7.75,7.75,0,0,1,9.13-.45C506.75,380,505.37,383.91,505.35,387.66Z" transform="translate(-157.15 -301.3)"/><path class="cls-12" d="M450.9,475.22c8.17-5.64,17.24-10.54,18.67-21.62.22-1.69,1.93-2.12,3.38-2.61l-.11.19,1.47,1.93,3.15,4.28a9.58,9.58,0,0,0-6.57,7.34c-1.32,5.45-12.32,12.31-18.27,11.82C452,476.5,451.47,475.68,450.9,475.22Z" transform="translate(-157.15 -301.3)"/><path class="cls-6" d="M513.79,458.78c-1.9,7.21-8.75,6.23-14,7.49-3.36.8-7.06.25-10.61.3-3.18-1.43-6.4-2.83-8.14-6C492.37,466.74,503.18,464.52,513.79,458.78Z" transform="translate(-157.15 -301.3)"/><path class="cls-6" d="M525.08,429.12c.65,7.44,1.51,14.91-2.17,21.94-1.22,2.32-2,5.2-5.78,4.72,6-9.71,9.1-19.7,3.35-30.6C523.75,424.62,523.67,427.68,525.08,429.12Z" transform="translate(-157.15 -301.3)"/><path class="cls-6" d="M521.61,385.83c-2.09,6.18-8.26,3.37-12.34,5.19-1-.37-2.08-.62-2.22-1.9Z" transform="translate(-157.15 -301.3)"/><path class="cls-6" d="M521.69,377.19c2.47,3,3.19,6,0,9C522.35,383.18,520,380.18,521.69,377.19Z" transform="translate(-157.15 -301.3)"/><path class="cls-5" d="M474.31,453.11l-1.47-1.93C474.12,451.26,474.13,452.25,474.31,453.11Z" transform="translate(-157.15 -301.3)"/><path class="cls-12" d="M480.5,460.37l-1.73-1.7Z" transform="translate(-157.15 -301.3)"/><path class="cls-1" d="M481.94,365.84l1.76-1.66Z" transform="translate(-157.15 -301.3)"/><path class="cls-1" d="M483.68,364.4c0-1,.09-1.7,1.15-.53A1.51,1.51,0,0,1,483.68,364.4Z" transform="translate(-157.15 -301.3)"/><path class="cls-1" d="M486.55,362.86a1.54,1.54,0,0,1,1.83-1.34Z" transform="translate(-157.15 -301.3)"/><path class="cls-2" d="M414.75,433.84c0-1.06,0-2.12,0-3.18q0-30.33,0-60.67c2.29-2.66,5.7-.87,8.39-2,3,.62,6.8-2.59,9,1.73a2.3,2.3,0,0,0-1.31,2.41q0,36.7,0,73.41a8.54,8.54,0,0,0,2.65,6.68c7.79,4.33,14.58,1.26,14.64-7.27.2-25.54-.07-51.09-.16-76.63,5.16-4.74,10.78-3.85,16.55-1.28q-.08,36.36-.15,72.71c-.07,22-14.69,33.09-36.8,27.92-7.27-3.89-11.7-9.65-12.62-17.73Z" transform="translate(-157.15 -301.3)"/><path class="cls-12" d="M448,368.36c.09,25.54.36,51.09.16,76.63-.06,8.53-6.85,11.6-14.63,7.28.18-2.42.5-4.83.51-7.25q.08-36.84.07-73.69c4.69,2.61,6.32,6.42,6.17,11.69-.28,10.28-.78,20.63,1.42,30.84.41,1.9.25,4.47,3.05,4.12,2.4-.31,1.52-2.8,1.53-4.35.08-12.56,0-25.12.1-37.68C446.35,373.38,445.27,370.46,448,368.36Z" transform="translate(-157.15 -301.3)"/><path class="cls-6" d="M427.55,467.71c22.11,5.17,36.73-5.91,36.8-27.92q.11-36.36.15-72.71l1.79-.2c.09,26.21.4,52.43.2,78.64-.13,17.22-13.78,28-31.78,25.67-1.78-.22-3.58-.27-5.38-.4C428.9,469.68,425.66,470.06,427.55,467.71Z" transform="translate(-157.15 -301.3)"/><path class="cls-6" d="M434.06,371.33q0,36.85-.07,73.69c0,2.42-.33,4.83-.51,7.25a8.54,8.54,0,0,1-2.66-6.69q.06-36.7,0-73.41a2.3,2.3,0,0,1,1.31-2.41Z" transform="translate(-157.15 -301.3)"/><path class="cls-2" d="M390.72,335.45c1.41-3.84,3.67-3.24,6.24-1.12a11.14,11.14,0,0,1-.15,1.16l-3,.41Z" transform="translate(-157.15 -301.3)"/><path class="cls-2" d="M400.07,333.88c1.75-1.7,4-1,6.05-1.12C404.31,334.16,402.2,334.06,400.07,333.88Z" transform="translate(-157.15 -301.3)"/><path class="cls-2" d="M410.86,332.4c1-1.13,2.28-1.1,3.62-.89A3.82,3.82,0,0,1,410.86,332.4Z" transform="translate(-157.15 -301.3)"/><path class="cls-12" d="M492.43,468.14c11.69,3,21.22-1.89,30.31-7.91,2.15-1.42,4-3,6.75-2.72l1.84,2.82-.19,1.6c-7.95,3.58-11.26,10.15-8.69,17.73-7-10-17.32-7.07-26.81-7.3C492.68,472.29,492.55,470.22,492.43,468.14Z" transform="translate(-157.15 -301.3)"/><path class="cls-6" d="M531.14,461.93c.06-.53.13-1.06.19-1.6l14.76-1.81c.39,4.17-3,3.08-5.22,3.33-2.78.3-5.59.29-8.39.41A7.71,7.71,0,0,0,531.14,461.93Z" transform="translate(-157.15 -301.3)"/><path class="cls-1" d="M528.05,399.62l1.81-.24h0l.63,3.05q.3,6,.59,12C524.68,410.51,529.67,404.44,528.05,399.62Z" transform="translate(-157.15 -301.3)"/><path class="cls-1" d="M532.28,429.25c-4.92-3.55-3-7.68-1.09-11.82l.15,5.21c.15.67.3,1.33.44,2C532,426.17,532.11,427.71,532.28,429.25Z" transform="translate(-157.15 -301.3)"/><path class="cls-4" d="M530.48,402.43l-.63-3.05A2.69,2.69,0,0,1,530.48,402.43Z" transform="translate(-157.15 -301.3)"/><path class="cls-4" d="M531.78,424.63c-.14-.66-.29-1.32-.44-2a9.6,9.6,0,0,1,.63,1.29C532,424.13,531.85,424.4,531.78,424.63Z" transform="translate(-157.15 -301.3)"/><path class="cls-11" d="M524.65,519a.54.54,0,0,0,.11.81c-1.46,6.25-5.31,8.83-11.91,7.19l0,.18-1.77-1.47.09.08-1.53-1.71.21-.09c-.84-3.92-1.29-8.06,3.36-9.85C518.36,512.15,522.57,513.63,524.65,519Z" transform="translate(-157.15 -301.3)"/><path class="cls-13" d="M529.61,513.93c.26-.68.6-2,.76-2,11.87,1.5,23.91-.88,35.73,1.45.2,0,.36.33.54.51h-37Z" transform="translate(-157.15 -301.3)"/><path class="cls-12" d="M492.79,513.93a3.37,3.37,0,0,0-.29,1.29l-4.57.45-2.93-.31c-.17-2.87-1.31-6.4,3-7.18C492.67,507.34,492.4,511.06,492.79,513.93Z" transform="translate(-157.15 -301.3)"/><path class="cls-1" d="M592.72,369.64c-4.1,5.19-8,5.25-11.77-.37.2-3.62.91-7,5.7-7C591.78,362.23,592.74,365.62,592.72,369.64Z" transform="translate(-157.15 -301.3)"/><path class="cls-2" d="M546.09,458.52l-14.76,1.81-1.84-2.82c.09-3.12.43-6.25.22-9.34-.24-3.37,1.71-4.07,4.48-4.21,2.67.22,5.36.6,7.83-.85,3.42-.25,4.3,1.51,4.15,4.48C546,451.22,546.1,454.87,546.09,458.52Z" transform="translate(-157.15 -301.3)"/><path class="cls-14" d="M295.22,332.39c3,.88,6.49-.3,9.24,1.82.2,3.19,3.65,2.71,4.86,2.67,13.17-.39,19.69,7.41,24,17.71,2.95,7,11.73,10.86,11.14,19.66l-3.15.19c-.23-1-.05-2.53-1.73-2.26-1.52.24-1.1,1.69-1.17,2.74-3.11.82-6.5,1.36-6.22,5.64l-3.09-.18c-.7-1.28-1.41-2.55-3.09-2.83-5.11-1.62-10.24.56-15.36-.13-5.18.86-2.5,4.87-3.27,7.51-1,3.35,2.66,7.85-2.69,10.12l-1.91-1.41c-5.27-11.58-14.65-16-27.4-14.66-.5,0-1,0-1.53,0-4.61-2.34-6.77-8.38-13.27-8-.73,0-2.38-1.88-2.22-2.63,2.23-10.8-9.37-14.85-12.36-23.3-1.48-4.16-4-6.22,3-8-5.78-1.23-9-3.35-12.24-7.36-2.8-3.51-9.66-1.8-14.52-.85-3.64.72-6.42.78-9-1.89,9.17-1.33,18.38-.4,27.58-.59l24.27,2.22,1.95.62,3.24.26Z" transform="translate(-157.15 -301.3)"/><path class="cls-2" d="M273.89,379c.51,0,1,.06,1.53,0,12.75-1.36,22.13,3.08,27.4,14.66-.05,20.75,0,41.49-.16,62.24-.1,16-11.46,26.77-28.16,26.81l-10,0c-1.4-3.75-5.38-4.55-8.21-6.65a5.31,5.31,0,0,0-2.12-3.85,20.24,20.24,0,0,1-2.32-9.24c0-9.63-.29-19.27,0-28.9.46-13.75-1.88-27.65,2.06-41.24v-.46l-.47-.06c1.39.63,1.39-.54,1.73-1.26C260.43,385.61,265.72,380.23,273.89,379Zm10.51,17.24c-8.23-5.51-16.55-1.88-16.78,8-.44,18.19-.27,36.39,0,54.58.05,3.27-.07,7.85,5.79,7.54,7.17,3.12,12.88-.09,13.4-8.16.5-7.87.37-15.78.14-23.67-.35-11.53,1.17-23.1-.87-34.6C286,398.44,285.91,397,284.4,396.21Z" transform="translate(-157.15 -301.3)"/><path class="cls-2" d="M210.72,487.28c-2.12-4.36-3-8.75-.34-13.22,16.24-1,18.38-3.17,18.39-18.73q0-30,0-60c0-13.2,1.55-14.28,15.75-10.9-.07,25.89-.05,51.77-.25,77.65-.09,12.44-7.38,22-19,24.51C220.58,487.62,215.57,487.1,210.72,487.28Z" transform="translate(-157.15 -301.3)"/><path class="cls-15" d="M210.72,487.28c4.85-.18,9.86.34,14.52-.67,11.66-2.53,18.95-12.07,19-24.51.2-25.88.18-51.76.25-77.65,1.13.24,2.32.41,2.82,1.65.32,25.93-.73,51.87.56,77.79-.12,1.8-.25,3.61-.37,5.42a11.91,11.91,0,0,0-3.16,9.13l-1.69,2.83c-4.08,1.4-7.81,3.17-9.2,7.58-5.44,2.52-11.68,1-17.19,3.17C214.25,490.65,211.39,490.16,210.72,487.28Z" transform="translate(-157.15 -301.3)"/><path class="cls-16" d="M247.92,463.89c-1.3-25.92-.25-51.86-.57-77.79,2.09,2.33,3.54,5.25,6.58,6.73-3.93,13.6-1.59,27.5-2.05,41.25-.32,9.63,0,19.27,0,28.9a20.24,20.24,0,0,0,2.32,9.24C248.12,472.2,252.33,465.05,247.92,463.89Z" transform="translate(-157.15 -301.3)"/><path class="cls-16" d="M255.19,391.06c-.34.72-.34,1.89-1.73,1.26Z" transform="translate(-157.15 -301.3)"/><path class="cls-10" d="M165.66,414.63l8.91,0c-.19,2.79,1.25,6-1.87,8a5.61,5.61,0,0,1-6.41-.05C163.16,420.29,165,417.36,165.66,414.63Z" transform="translate(-157.15 -301.3)"/><path class="cls-2" d="M213.37,553.94l-1.42-.62Z" transform="translate(-157.15 -301.3)"/><path class="cls-8" d="M287.15,527.07c-3.7,1.61-7.48,3.1-9.9,6.52l-3.71-.21c1.81-5.79-6.16-11.1-.91-17.24.49-.58-1.84-2-3.48-2.18a12.14,12.14,0,0,1-10.75-8.32c-1.91-5.17-6.29-4.47-10.48-4.08-.08-4.14,4-4,5.44-6.16,1-1.45,2.57-3.08.5-4.36-1.67-1-2.11,1.71-3.54,2.11-.59-1.69-4.06-3-3.33-3.36,5.57-2.45,2.25-6.68,2.5-10,.38-4.91,3.33-4.52,6.8-3.71,2.83,2.1,6.81,2.9,8.21,6.65l1.12,1.63,1.84,1,.14.08c2.06,4.55,6.34,4.41,10.47,4.58,2.58,2.4,5.18,2.35,7.8.06l3-.05c5.29,3.05,10.17,1.86,14.79-1.42,1.83-1.3,3.64-1.92,5.49-.22,1.55,1.42,1.43,2.92.11,4.55-3.66,4.55-1.41,6,3.5,6.12,1.78,0,3.71-.16,5.31.41a4.4,4.4,0,0,1,2.92,4.75c-.42,3-2.57,1.12-4.12,1-9.06-.61-.43,3.89-1.72,5.54-3,.69-6.38.75-8.23,3.8l-.37.28c-1.75,1.16-3.52,2.31-5.29,3.46h0a37.51,37.51,0,0,0-14.06,8.8Z" transform="translate(-157.15 -301.3)"/><path class="cls-3" d="M256.29,476.07c-3.47-.81-6.42-1.2-6.8,3.71-.25,3.33,3.07,7.56-2.5,10-.73.32,2.74,1.67,3.33,3.36-9.15,2-18.23,4.58-27.73,4.31-3.41-.09-5.61-2.11-6.29-5.44,5.51-2.16,11.75-.65,17.19-3.17,5.18-.15,8.15-2.79,9.2-7.58.56-.94,1.13-1.88,1.69-2.83,4.1-2.07,5.31-5.06,3.16-9.13.12-1.81.25-3.62.37-5.42,4.42,1.16.21,8.31,6.26,8.33A5.31,5.31,0,0,1,256.29,476.07Z" transform="translate(-157.15 -301.3)"/><path class="cls-3" d="M199.41,461.49c.6,5-2.68,7.51-7.58,7.61s-8.69-2.51-8.68-7.44,3.18-8.24,8.64-8.49S199.47,456.1,199.41,461.49Zm-9.14,5c4.95.2,7-1.92,7-5.2s-2-5.44-5.72-5.41c-3.39,0-5.26,1.95-5.46,4.91C185.91,464.12,187.66,466.35,190.27,466.5Z" transform="translate(-157.15 -301.3)"/><path class="cls-8" d="M231.11,536c-2.81-.32-3.82-2-3.87-4.52-.05-2.09.21-4,3.06-4,2.7,0,4.28,1.31,4.47,3.91S233.9,535.6,231.11,536Z" transform="translate(-157.15 -301.3)"/><path class="cls-3" d="M256.67,546.73c-2.56,2.53-5.8,3.66-9.3,4.28C249,546.59,252.9,546.82,256.67,546.73Z" transform="translate(-157.15 -301.3)"/><path class="cls-3" d="M264.41,542.31a12.79,12.79,0,0,1-7.74,4.55C257.24,542.17,260.87,542.32,264.41,542.31Z" transform="translate(-157.15 -301.3)"/><path class="cls-3" d="M270.64,537.94a9.49,9.49,0,0,1-6.21,4.48C264.48,538.35,267.52,538.09,270.64,537.94Z" transform="translate(-157.15 -301.3)"/><path class="cls-3" d="M273.54,533.38l3.71.21c-1.91,1.9-3.63,4.06-6.65,4.4Z" transform="translate(-157.15 -301.3)"/><path class="cls-2" d="M332.23,380.56c-.28-4.28,3.11-4.82,6.22-5.64l2.9-.48,3.15-.19c2.89.1,6-.21,7.34,3.18,4.94,17.89,9.87,35.78,18.46,52.48V415.28c.14-11,.33-22,.41-33,.08-10.77,4-13.17,15.55-9.41q-.08,41.73-.15,83.45c0,15.23,0,15.23-15.6,17.48-2-1.8-2.21-4.32-3.09-6.6-4.32-11.24-6.82-23.08-12-34-2-3.23,0-8.28-4.93-10.18-1.85.71-1.65,2.29-1.65,3.73q.12,23.6.27,47.2c-4.73,2.66-10.21,1.74-15.23,3l-1.77-2q0-46.33,0-92.68Z" transform="translate(-157.15 -301.3)"/><path class="cls-14" d="M355.41,433.13c5.19,11,7.69,22.8,12,34,.88,2.28,1.12,4.8,3.1,6.6l1.75,2,1.42,1.05c4.53,8.36,11.69,2.27,17.48,2.51,4.22.17,2.11-4.48,2.61-7.05,3.32-2.32,6.36-4.79,7.2-9a2.33,2.33,0,0,1,2.63-2.13,2.91,2.91,0,0,1,2.35,2.57c1.56,8.45,4.09,16,13.76,19.39,3.44,1.21.64,3-.73,4.8-3.32,4.37-9.88-.43-12.69,4.57l-15.45,1a8.77,8.77,0,0,0-5.6.6l-13.18,1.2-1.87.6c-9.69.22-18.75,3.56-28.15,5.21.71-3.55,4.9-3.09,6.74-5.42,1.5-1.89,4.27-3.33,2.76-6.21s-4.14-2.63-6.67-1.64c-3.18,1.23-4.83.5-5.2-2.89-.16-1.5-.88-3-2.78-2.91-1.75.06-1.12,2-1.85,2.73-2.88,2.85-5.24,7.38-9.29,7.63-4.49.27-6.27-4.24-7.59-8.05,10.23,2.86,10.23,2.86,15.48-6.08,4.39,2.75,9.24,1.21,13.9,1.36s5.53-2.25,3.87-6l-.6-15.27c3.78-3,3.73-6.06,0-9.1a33.79,33.79,0,0,0,0-14.64C352.13,433.51,354.5,435.41,355.41,433.13Z" transform="translate(-157.15 -301.3)"/><path class="cls-6" d="M372.28,475.81l-1.76-2c15.6-2.25,15.57-2.25,15.59-17.48q0-41.73.15-83.45c2,0,2.75,1.26,3.16,2.88,0,1.06,0,2.12,0,3.19l.06,4.38v35.55c-.06,9.11-.4,18.23-.1,27.32.25,7.79-1.46,15.68,1.14,23.36,0,.93,0,1.87.05,2.81-4.46,6-11.37,1.85-16.82,3.78Z" transform="translate(-157.15 -301.3)"/><path class="cls-12" d="M389.5,383.29l-.06-4.38c.5-.06,1-.1,1.51-.14,3.72.69,2.86,3.56,2.86,5.86q0,39,0,78.08c0,2.81-.09,5.47-3.28,6.81-2.6-7.68-.89-15.57-1.14-23.36-.3-9.09,0-18.21.1-27.31A105.35,105.35,0,0,0,389.5,383.29Z" transform="translate(-157.15 -301.3)"/><path class="cls-6" d="M370.3,415.28v14.63c-8.59-16.7-13.52-34.59-18.46-52.48,3.72-.75,3,2.47,3.53,4.06q5.42,16,10.36,32.2C366.65,416.71,367.34,418.53,370.3,415.28Z" transform="translate(-157.15 -301.3)"/><path class="cls-12" d="M414.74,370q0,30.33,0,60.67c-2.84-.62-2.38-2.83-2.39-4.75q0-25.57,0-51.16C412.35,372.82,411.92,370.64,414.74,370Z" transform="translate(-157.15 -301.3)"/><path class="cls-12" d="M373.78,476.11c5.45-1.93,12.36,2.21,16.82-3.78h3.18c-.5,2.57,1.61,7.22-2.61,7.05-5.79-.24-12.95,5.85-17.48-2.52A4.53,4.53,0,0,0,373.78,476.11Z" transform="translate(-157.15 -301.3)"/><path class="cls-12" d="M414.75,433.84l.18,16.14c-3.69-.83-2.34-3.73-2.54-5.91-.23-2.56.61-5.59-3.48-6.05.36-1.34.73-2.69,1.09-4Z" transform="translate(-157.15 -301.3)"/><path class="cls-12" d="M434,473.82c4.68,0,9.38-.21,13.88,1.44C442.92,477.48,438.1,478.68,434,473.82Z" transform="translate(-157.15 -301.3)"/><path class="cls-2" d="M410,434c-.36,1.35-.73,2.7-1.09,4-2.67.1-5.71-.08-4.64-3.59S407.9,432.21,410,434Z" transform="translate(-157.15 -301.3)"/><path class="cls-4" d="M390.72,335.45l3.06.45c-3.94,2.66-8.35.79-12.52,1.22C384,334.18,387.67,336.52,390.72,335.45Z" transform="translate(-157.15 -301.3)"/><path class="cls-2" d="M446.3,494.85c-.43.72-.77,2-1.31,2-1.59.25-1.58-1.18-1.79-2.23Z" transform="translate(-157.15 -301.3)"/><path class="cls-5" d="M391,378.77c-.5,0-1,.08-1.51.14,0-1.07,0-2.13,0-3.19Z" transform="translate(-157.15 -301.3)"/><path class="cls-11" d="M348.46,313.87c5.48-.53,9.93,1,10,6.94.08,6.4-4.54,7.95-10.35,7.29C342.35,322.42,342.42,319.19,348.46,313.87Z" transform="translate(-157.15 -301.3)"/><path class="cls-2" d="M487.93,515.67l4.57-.45.06,3.17C490.46,518.37,488.21,518.57,487.93,515.67Z" transform="translate(-157.15 -301.3)"/><path class="cls-2" d="M512.85,527c6.6,1.64,10.45-.94,11.91-7.19,3.44,5-.15,7.52-3.94,9.3C518.05,530.39,514.06,532.6,512.85,527Z" transform="translate(-157.15 -301.3)"/><path class="cls-2" d="M511.13,525.69l1.77,1.47Z" transform="translate(-157.15 -301.3)"/><path class="cls-2" d="M509.69,524.06l1.53,1.71Z" transform="translate(-157.15 -301.3)"/><path class="cls-7" d="M310.69,377.42c5.12.69,10.25-1.49,15.36.13q0,44.4.07,88.81c-.66,11.28-.66,11.28-12.83,11.83-.76,0-1.52.11-2.28.17-.35-.52-.7-1-1-1.55.67-27.69.71-55.39,0-83.08Z" transform="translate(-157.15 -301.3)"/><path class="cls-15" d="M265.62,484.35l-1.12-1.63,10,0c16.7,0,28.06-10.78,28.16-26.81.12-20.75.11-41.49.16-62.24l1.91,1.41c.38,1,.77,2.05,1.16,3.08,0,18.26-.08,36.51,0,54.76a37.48,37.48,0,0,1-3.2,15.81c-6.79,15-20.12,17.45-35,16.78l-.14-.08Z" transform="translate(-157.15 -301.3)"/><path class="cls-6" d="M326.12,466.36q0-44.42-.07-88.81c1.68.28,2.39,1.55,3.09,2.83q-.24,43-.47,86.11Z" transform="translate(-157.15 -301.3)"/><path class="cls-16" d="M328.67,466.5q.22-43.06.47-86.12l3.09.18c-.06.54-.12,1.07-.17,1.6-2.09,1.42-1.36,3.55-1.37,5.42q-.06,40.94,0,81.88c0,1.85-.77,4,1.41,5.38l1.76,2a4.23,4.23,0,0,0-.21,1.41c-5.25,8.94-5.25,8.94-15.48,6.08a6,6,0,0,1-4.7-3c1-.05,2-.12,3-.14,12.58-.29,12.64-.34,12.36-12.48C328.87,468,328.74,467.22,328.67,466.5Z" transform="translate(-157.15 -301.3)"/><path class="cls-11" d="M305.89,398.13c-.39-1-.78-2.05-1.16-3.08,5.35-2.27,1.71-6.77,2.69-10.12.77-2.64-1.91-6.65,3.27-7.51q-.37,8.16-.74,16.31c-1.34,1.33-.89,3.06-1.13,4.63Z" transform="translate(-157.15 -301.3)"/><path class="cls-11" d="M341.35,374.44l-2.9.48c.07-1.05-.35-2.5,1.17-2.74C341.3,371.91,341.12,373.42,341.35,374.44Z" transform="translate(-157.15 -301.3)"/><path class="cls-13" d="M265.2,328.58l1.95.62Z" transform="translate(-157.15 -301.3)"/><path class="cls-14" d="M286.08,399.87c2,11.49.52,23.06.87,34.59.23,7.89.36,15.8-.14,23.67-.52,8.07-6.23,11.28-13.4,8.16l-1.23-2.74a18.78,18.78,0,0,0-1-15.46c-.06-1.66-.13-3.33-.2-5,3.45-1.5,2.41-4.52,2.43-7.06.09-9.77-.18-19.56.11-29.33.21-7.24,4.18-8.79,10.68-4.86C286.84,403.42,285.18,400.32,286.08,399.87Z" transform="translate(-157.15 -301.3)"/><path class="cls-15" d="M272.18,463.55l1.23,2.74c-5.86.31-5.74-4.27-5.79-7.54-.27-18.19-.44-36.39,0-54.58.23-9.84,8.55-13.47,16.78-8-1.15,1.77-2.74.66-4.1.48-6.6-.89-9.71,2.31-9.72,8.23,0,12.73.27,25.45.43,38.18.07,1.66.14,3.33.2,5C270.46,453.31,269,458.56,272.18,463.55Z" transform="translate(-157.15 -301.3)"/><path class="cls-16" d="M271,443.1c-.16-12.73-.47-25.45-.43-38.18,0-5.92,3.12-9.12,9.72-8.23,1.36.18,2.95,1.29,4.1-.48,1.51.81,1.6,2.23,1.68,3.66-.9.45.76,3.55-1.85,2-6.5-3.93-10.47-2.38-10.68,4.86-.29,9.77,0,19.56-.11,29.33C273.42,438.58,274.46,441.6,271,443.1Z" transform="translate(-157.15 -301.3)"/><path class="cls-16" d="M242.69,481.27c-1.05,4.79-4,7.43-9.2,7.58C234.88,484.44,238.61,482.67,242.69,481.27Z" transform="translate(-157.15 -301.3)"/><path class="cls-16" d="M247.54,469.31c2.15,4.07.94,7.06-3.16,9.13A11.91,11.91,0,0,1,247.54,469.31Z" transform="translate(-157.15 -301.3)"/><path class="cls-9" d="M313.47,481.3a6,6,0,0,0,4.7,3c1.32,3.81,3.1,8.32,7.59,8.05,4.05-.25,6.41-4.78,9.29-7.63.73-.73.1-2.67,1.85-2.73,1.9-.07,2.62,1.41,2.78,2.91.37,3.39,2,4.12,5.2,2.89,2.53-1,5.23-1.09,6.67,1.64s-1.26,4.32-2.76,6.21c-1.84,2.33-6,1.87-6.74,5.42l-.17-.07c-1.17.37-3.31-2.21-3.53,1.07l-.87,1.23-3.85,1-7.72,2c-1.89-.72-1,1.18-1.65,1.63l-9.15,2.88c1.29-1.65-7.34-6.15,1.72-5.54,1.55.11,3.7,2,4.12-1a4.4,4.4,0,0,0-2.92-4.75c-1.6-.57-3.53-.39-5.31-.41-4.91-.08-7.16-1.57-3.5-6.12,1.32-1.63,1.44-3.13-.11-4.55-1.85-1.7-3.66-1.08-5.49.22-4.62,3.28-9.5,4.47-14.79,1.42,5.49-4.22,12.62-6.48,16.4-12.83.36-.62,2.33-.36,3.56-.51.39,0,.78.07,1.18.08l1,1.55C311.07,479.93,312.15,480.71,313.47,481.3Z" transform="translate(-157.15 -301.3)"/><path class="cls-16" d="M308.79,476.73c-1.23.15-3.2-.11-3.56.51-3.78,6.35-10.91,8.61-16.4,12.83l-3,.05a5.67,5.67,0,0,0-7.8-.06c-4.13-.17-8.41,0-10.47-4.58,14.93.67,28.26-1.81,35-16.78a37.48,37.48,0,0,0,3.2-15.81c0-18.25,0-36.5,0-54.76l2.93.23Z" transform="translate(-157.15 -301.3)"/><path class="cls-9" d="M278.07,490.06a5.67,5.67,0,0,1,7.8.06C283.25,492.41,280.65,492.46,278.07,490.06Z" transform="translate(-157.15 -301.3)"/><path class="cls-2" d="M307.43,518.39l-6.21,0c1.77-1.15,3.54-2.3,5.29-3.46C306.81,516.05,307.12,517.22,307.43,518.39Z" transform="translate(-157.15 -301.3)"/><path class="cls-16" d="M265.62,484.35l1.84,1Z" transform="translate(-157.15 -301.3)"/><path class="cls-2" d="M190.27,466.5c-2.61-.15-4.36-2.38-4.15-5.7.2-3,2.07-4.89,5.46-4.91,3.77,0,5.78,2.11,5.72,5.41S195.22,466.7,190.27,466.5Z" transform="translate(-157.15 -301.3)"/><path class="cls-6" d="M332.1,474.84c-2.18-1.37-1.4-3.53-1.41-5.38q-.06-40.95,0-81.88c0-1.87-.72-4,1.37-5.42Q332.08,428.51,332.1,474.84Z" transform="translate(-157.15 -301.3)"/><path class="cls-15" d="M350.82,458.34q.3,7.64.59,15.27l-2.31.27q-.14-23.6-.27-47.2c0-1.44-.2-3,1.65-3.73l.33,11.65a33.79,33.79,0,0,1,0,14.64Q350.83,453.8,350.82,458.34Z" transform="translate(-157.15 -301.3)"/><path class="cls-6" d="M349.1,473.88l2.31-.27c1.67,3.76.94,6.15-3.86,6s-9.51,1.39-13.9-1.36a4.23,4.23,0,0,1,.21-1.41C338.89,475.62,344.37,476.54,349.1,473.88Z" transform="translate(-157.15 -301.3)"/><path class="cls-6" d="M350.81,434.6,350.48,423c5,1.9,2.92,6.95,4.93,10.18C354.5,435.41,352.13,433.51,350.81,434.6Z" transform="translate(-157.15 -301.3)"/><path class="cls-6" d="M350.82,458.34q0-4.54,0-9.1C354.55,452.28,354.6,455.31,350.82,458.34Z" transform="translate(-157.15 -301.3)"/><path class="cls-13" d="M372.07,495.29l-1.87.6Z" transform="translate(-157.15 -301.3)"/><path class="cls-5" d="M373.78,476.11a4.53,4.53,0,0,1-.09.74l-1.42-1Z" transform="translate(-157.15 -301.3)"/><path class="cls-5" d="M389.5,383.29a105.35,105.35,0,0,1,0,35.56Q389.51,401.06,389.5,383.29Z" transform="translate(-157.15 -301.3)"/><path class="cls-14" d="M308.79,476.73l0-78.37c.24-1.57-.21-3.3,1.13-4.63q1.1,41.53,0,83.08C309.57,476.8,309.18,476.77,308.79,476.73Z" transform="translate(-157.15 -301.3)"/><path class="cls-15" d="M313.47,481.3c-1.32-.59-2.4-1.37-2.47-2.94.77-.06,1.53-.14,2.29-.17,12.17-.55,12.17-.55,12.83-11.83l2.55.13c.07.73.2,1.46.21,2.19.28,12.14.22,12.19-12.36,12.48C315.5,481.18,314.49,481.25,313.47,481.3Z" transform="translate(-157.15 -301.3)"/><path class="cls-16" d="M272.18,463.55c-3.14-5-1.72-10.24-1-15.45A18.76,18.76,0,0,1,272.18,463.55Z" transform="translate(-157.15 -301.3)"/><path class="cls-2" d="M342.92,503.51l-5.43-.18.86-1.23h3.28Z" transform="translate(-157.15 -301.3)"/><path class="cls-14" d="M341.63,502.11h-3.28c.22-3.28,2.36-.7,3.53-1.07A4,4,0,0,1,341.63,502.11Z" transform="translate(-157.15 -301.3)"/><path class="cls-13" d="M325.91,506.3l-1.65,1.63C324.91,507.48,324,505.58,325.91,506.3Z" transform="translate(-157.15 -301.3)"/></svg>