<svg id="Layer_1" data-name="Layer 1" xmlns="http://www.w3.org/2000/svg" viewBox="0 0 212.19 281.14"><defs><style>.cls-1{fill:#33e0f4;}.cls-2{fill:#8abce6;}.cls-3{fill:#052635;}.cls-4{fill:#f7fcfc;}.cls-5{fill:#09363b;}.cls-6{fill:#0d4d54;}.cls-7{fill:#157a85;}.cls-8{fill:#28aab8;}.cls-9{fill:#eaf0f6;}.cls-10{fill:#8599a8;}.cls-11{fill:#e4ecf3;}.cls-12{fill:#38485f;}.cls-13{fill:#6fe4f1;}</style></defs><path class="cls-1" d="M446.64,434.84l-5.92-9.56a69.51,69.51,0,0,1-6.34-32.73c.08-1.7-.44-2.29-2.17-2.64-6.84-1.37-13.65-2.91-20.45-4.49-4.28-1-4.26-1.1-1.95-4.7,7.6-11.86,15.18-23.75,22.87-35.56a7.11,7.11,0,0,0,1.16-5.57c-1.9-10.47-4.52-20.71-9.12-30.35-1.45-3.05-2.9-6.18-5.38-8.49-2.79-2.6-1.58-3.75,1.05-5.28a113.94,113.94,0,0,0,34.78-32,61.71,61.71,0,0,0,6.68-10.81,3.19,3.19,0,0,1,3.43-2.11q46.1.08,92.2,0a3.11,3.11,0,0,1,3.14,2c9.71,17.85,23.48,31.83,40.74,42.46,4.22,2.6,4.09,2.54,1.25,6.43-8.12,11.12-11.4,24-13.17,37.57,2.48-2.59,5-5.14,7.42-7.79,3-3.28,6.54-4,10.51-2.31a22.88,22.88,0,0,1,12.14,11.66c1.73,3.8,1,7.23-1.89,10.31-7.51,7.86-14.88,15.84-22.44,23.65-1.54,1.6-1.7,2.61-.3,4.33a56.61,56.61,0,0,1,3.31,5.41c5,7.75,0,16.23-8.69,18.58-1.7.45-1.77,1.45-1.92,2.69a47.71,47.71,0,0,1-2.71,11.61l-4.35,10.34q-3.94,5.5-7.9,11-2,2.33-4,4.64l-2.25,2.24c-1.08.68-2.36,1.12-2.9,2.44l-5.08,4.65-1.23.18-5.65-.16c1.63-2.24,4.57-3,6.12-5.29,1.93-1.82,4.39-3.05,5.89-5.34,3-3.93,7.38-6.67,9.58-11.28,6.15-8.77,10.11-18.37,10.67-29.16.13-2.47.58-3.89,3.42-2.79,2.2.84,3.77-.14,5.28-1.73,4.06-4.28,4.46-6.35,1.62-11.58a24.37,24.37,0,0,0-4-5.88c-2.51-2.46-1.54-4,.47-6.05,7.39-7.62,14.63-15.38,21.93-23.1,4.73-5,4.77-7.59,0-12.64a26.48,26.48,0,0,0-3.65-3.2c-4.22-3.16-6.73-2.89-10.34.95q-7.5,8-15,16a60.28,60.28,0,0,1,.9-12.09c2.18-13.25,5.6-26.12,12.86-37.6,1.54-2.45,1.59-3.33-1-5A114.86,114.86,0,0,1,559,258c-1.48-2.51-3.05-3.31-5.88-3.3-26.35.11-52.71.26-79.06-.08-6-.07-9.45,1.28-12.74,6.71-8.92,14.72-21.34,26.29-35.68,35.79-1.07.71-2.9.92-1.39,3.18,8.23,12.33,11.49,26.4,14,40.7.37,2.05-.36,3.58-1.41,5.21q-10.28,15.87-20.42,31.82c-.72,1.12-1.74,2.11-1.92,3.7a144.52,144.52,0,0,0,16.75,3.86c7.14,1.11,7.21,1.09,7.06,8.18-.33,16.71,4.54,31.44,16.35,43.58a44.09,44.09,0,0,0,8.23,8.26,48.59,48.59,0,0,0,8.38,6.68l3.49,3a18.89,18.89,0,0,1-6.69.63,8.08,8.08,0,0,0-3.5-3l-2.76-2.26-2.61-2.42-1.62-1.45-5-4.39C451.17,439.5,448.48,437.5,446.64,434.84Z" transform="translate(-408.26 -250.6)"/><path class="cls-2" d="M530.58,522.42c.76-9.25.84-9.31,10.64-7.86,2.61,1.46,2,4.07,2.31,6.37a7,7,0,0,0-.11,1.11c.62,11.18-2.35,9.3-10.45,9.44-1.83,0-2.32-.69-2.26-2.4C530.79,526.87,530.63,524.64,530.58,522.42Zm8.86.92c0-1.55,0-2.78,0-4,0-1.4-.88-1.64-2-1.55-.9.07-2.37-.49-2.48.83a80.68,80.68,0,0,0-.07,8.52c0,.94.85,1,1.63,1.07C541.27,528.54,538.78,524.9,539.44,523.34Z" transform="translate(-408.26 -250.6)"/><path class="cls-2" d="M488.31,522.44c0-.24.09-.49.14-.73.51-2.43-1.42-6.26,1-7.08,3.13-1.06,7.12-1.35,10.36,1,.95,1.64.69,3.49.89,5.26-1.67,2.64-2.3,5.26-.32,8.11.29.43,1.29,2-.13,2.26-1.08.23-2.75,1-3.47-.95-.42-1.12-1.23-2.16-1.35-3.3s-.52-1.68-1.77-1.67c-1.65,0-1.08,1.2-1.37,2-.46,1.36,1.57,3.76-1.61,4-1.41.11-2.38-.06-2.3-1.91C488.51,527.17,488.35,524.8,488.31,522.44Zm5.92-.62c1.41.08,2.48,0,2.47-1.86,0-1.55-.46-2.24-2.09-2.22-1.37,0-2.37.08-2.29,1.92C492.39,521.08,492.51,522.13,494.23,521.82Z" transform="translate(-408.26 -250.6)"/><path class="cls-2" d="M517.94,515.72c4.42-3.09,7.18-2.11,8.19,2.88.26,1.33.63,2.63,1,3.95.41,2.16,1,4.32,1.18,6.5.08.74,1.21,2.38-.92,2.36-1.13,0-2.71.49-2.74-1.48,0-2.4-1.61-2.29-3.31-2.28-1.54,0-2.91-.08-3.12,2.05-.3,2.83-2.58,1.39-4,1.7Zm4,1.41c-1.73,2.1-1.66,3.75-2.08,5.24-.36,1.3.09,1.78,1.38,1.81s2.17-.27,1.83-1.84S522.45,519.36,522,517.13Z" transform="translate(-408.26 -250.6)"/><path class="cls-2" d="M473.26,524.8l2.68-9.69c5.41-2.15,7-1.31,8,4.19.2,1.06-.12,2.27.86,3.12.31,2.19.6,4.37,1,6.55.14.92,1.58,2.16-.58,2.43-1.32.17-2.93.4-3-1.66s-1.51-2.15-3.06-2.07-3.17-.41-3.26,1.91c-.09,2-1.52,2-2.91,1.81-2-.34-.66-1.75-.59-2.61A29.21,29.21,0,0,1,473.26,524.8Zm5.92-7c-1.54,1.52-1.34,3.51-1.76,5.22-.33,1.33.9,1.2,1.72,1.18s2.12.16,1.72-1.16C480.35,521.31,480.84,519.26,479.18,517.76Z" transform="translate(-408.26 -250.6)"/><path class="cls-2" d="M553.08,514.13l2.6.16c1.31.07,1.12,1.06,1.16,1.9s-.07,1.75-1.33,1.71c-1,0-2,0-3,0s-1.92.08-1.91,1.55.82,1.69,1.91,1.54c2.91-.43,4.2.58,3.38,3.61-1.11,0-2.23,0-3.35,0s-1.94.06-1.94,1.52c0,1.24.49,1.55,1.69,1.84,1.56.38,4.66-1.72,4.42,1.88-.2,3.15-3.07,1.46-4.62,1.53-5.62.23-5.61.09-5.64-5.6,0-1.61-.11-3.22-.17-4.82l.2-6.47Z" transform="translate(-408.26 -250.6)"/><path class="cls-2" d="M504.3,515.53a11.14,11.14,0,0,1,9.37-.59c-.21,1.44.37,3.54-2.33,3-3.69-.74-4.38,1.21-4,4.28a11.65,11.65,0,0,1,0,2.95c-.29,2.17.66,2.92,2.7,2.59,3-.46,4.17.65,3.31,3.65l-3.71,0c-5.67,0-6.22-.61-6.29-6.43,0-1.36-.14-2.71-.22-4.06C503.61,519.16,503.07,517.15,504.3,515.53Z" transform="translate(-408.26 -250.6)"/><path class="cls-3" d="M454.68,437.38c-11.81-12.14-16.68-26.87-16.35-43.58.15-7.09.08-7.07-7.06-8.18a144.52,144.52,0,0,1-16.75-3.86c.18-1.59,1.2-2.58,1.92-3.7q10.17-15.94,20.42-31.82c1.05-1.63,1.78-3.16,1.41-5.21-2.55-14.3-5.81-28.37-14-40.7-1.51-2.26.32-2.47,1.39-3.18,14.34-9.5,26.76-21.07,35.68-35.79,3.29-5.43,6.79-6.78,12.74-6.71,26.35.34,52.71.19,79.06.08,2.83,0,4.4.79,5.88,3.3a114.86,114.86,0,0,0,37.41,38.68c2.54,1.63,2.49,2.51,1,5-7.26,11.48-10.68,24.35-12.86,37.6a60.28,60.28,0,0,0-.9,12.09q7.51-8,15-16c3.61-3.84,6.12-4.11,10.34-.95a26.48,26.48,0,0,1,3.65,3.2c4.73,5.05,4.69,7.64,0,12.64-7.3,7.72-14.54,15.48-21.93,23.1-2,2.07-3,3.59-.47,6.05a24.37,24.37,0,0,1,4,5.88c2.84,5.23,2.44,7.3-1.62,11.58-1.51,1.59-3.08,2.57-5.28,1.73-2.84-1.1-3.29.32-3.42,2.79-.56,10.79-4.52,20.39-10.67,29.16l-3.25-.86c4.77-7,8.45-14.5,9.8-23,.32-2.05,1.36-4.47,0-6.15-3.33-4.2-6.22-9.17-12.44-9.76-5.39-2.92-11.41-4.17-17-6.48a1.49,1.49,0,0,0-2.29,1.08c-2.17,7.69-6.68,14.11-11.06,20.61-3.22,3.1-6.34,6.33-10.64,8,4.66-5.12,9.09-10.38,12.3-16.4,3.84-7.2,9-14.36,4.71-23.28-.34-1.35-.67-2.7-1.21-4.89-4.2,7.91-9,14.21-15.51,19l-.73-.84c0-.89,1.47-1.53.37-2.69-5.1,3.59-9.94,7.63-16.81,9.8,1.8-2.89,2.19-5.46,2.92-7.92.28-.29,1-.45.56-1-.33-.37-.89-.11-1.22.33-2.7.84-4.51,2.95-6.66,4.59-8.18,6-16.67,11.59-26.21,15.79a117.08,117.08,0,0,0,14.5,11.26c2.85,2,3.9,4.26,2.6,7.26s.13,3.4,2.51,4.12c6.46,1.95,6.64,2.39,5.94,8.87l-3.18-.07-.45-.77.21-.19-.15-.24c.63-1.48.6-2.62-1.32-3.08-1.54-.37-3-.9-4.56-1.36-.75-1.43-2.28-1.1-3.47-1.54l-.49-.75c-.34-2.09-.79-2.52-4.37-2.41-2.77.08-5.19.15-5.05-3.5-1.3.82-.6,2.49-1.83,3.16-.21-.09-.38-.11-.42-.19a4.41,4.41,0,0,1-.58-1.35c-.35-5.22-3.63-7.32-8.34-7.93a2.12,2.12,0,0,1-.36-.1,5.55,5.55,0,0,1-3.76-7.92c1.58-3.71,3.94-7.09,4.38-11.27.12-1.09.3-2-.6-2.68-1.08-.75-1.54.44-2.05,1a54.61,54.61,0,0,0-8.55,11.28c-1.18,2-2.27,4.12-3.57,6.07-1.77,2.64-.32,4,2,4.2,3.74.35,7.2,1.77,10.86,2.3,2.07.3,3.22,1.25,3.31,3.26.16,3.4,1.78,5.11,5.23,4.95l3.19.65c-.21,1.63-1.54,1.76-2.74,2-2.05.43-4.13.71-6.16,1.24C465.86,434.29,460.27,435.86,454.68,437.38ZM423.29,375c-.67-.21-.73.32-.9.73-.93.95-2.25,2.08-1.74,3.32s2.18.51,3.34.67a17.91,17.91,0,0,0,2.2.09,1.83,1.83,0,0,0,1.68,1.25c5.88,1,11.73,2.18,17.64,2.91,6.87.86,6.88.67,9.74-5.9,1.24-2.86,2.61-5.65,3.8-8.53.68-1.65,2.26-3.11,1.33-5.19a.2.2,0,0,1,.18-.28,8,8,0,0,1,1.52,4.52c.44,4.42.71,8.87,1,13.31.09,1.63.26,3.06,2.37,2.95,3.08-.15,6.2.46,9.23-.5,3.12-.12,6.27,0,9.35-.4,36.82-4.92,65.16-23,84.65-54.74.57-.93,1.34-1.83,1-3.07-.32-.36-.59-1-1-1-5.24-1-10.5-1.94-15.75-2.91a1.82,1.82,0,0,0-2,.68c-2.82,3.89-5.6,7.8-8.4,11.71-1.2,1.65-3,2.53-4.7,3.48,0-3.15,2.88-5.46,2.48-8.71l.46-.47-.33-.22-.17.65a144.57,144.57,0,0,1-17,16.66c2,1.29,3.46-.8,5,.17-.08.24-.08.56-.23.67-11.08,8-23.55,12.83-36.63,16.35-2.78.75-5.91.57-8.25,2.69l-2.83.1c.22-1.54,1.57-1.86,2.67-2.29a50.62,50.62,0,0,0,14.87-9.12c5.77-5,10.94-10.49,13.88-17.71l.45-.47-.33-.18-.12.65c-3.87,1.51-6.13,5.54-10.47,6.56,2.88-4.06,5.9-8,6.86-13-7.1,5.76-14.14,11.33-23,14.12,1.44-2.34,3.2-4.37,4.77-6.53,7.21-9.91,10.57-20.74,7.84-33-.45-2-.83-3.07-2.94-1.13a41.6,41.6,0,0,1-30,11.26c-2.86-.06-4.87.64-5.65,3.58a122.15,122.15,0,0,0-11.95,18.82l-.77.83,0,0c-5.08,6.71-9.24,14-13.81,21.08-3,4.65-6.39,9.09-8.71,14.17v0a1.09,1.09,0,0,0-.79,1.55Zm132.79-9c-.11-.27-.11-.74-.57-.48-.08,0,.1.57.17.88.32.8.41,1.78,1.6,2C557.49,367.21,556.79,366.61,556.08,366Zm5.53,8.81c.28.15.73.48.81.41.48-.44.11-.76-.27-1l-1.93-2.55c-.79-.86-.93-2.41-2.63-2.53a5,5,0,0,0,2,3.09Q560.62,373.54,561.61,374.83Zm14,12.92a2.39,2.39,0,0,0-2.39-2.16c-2.42-3.75-6.3-6-9.41-9,2.62,3.54,4.92,7.42,9.44,9,0,1.43,1,2,2.19,2.35.69.86,1.26,1.93,2.77,1.6C577.79,387.92,576.7,387.83,575.6,387.75Zm31.27-47a11.28,11.28,0,0,0,5.87,3.81,12.8,12.8,0,0,0-5-6.24,5.75,5.75,0,0,0-4-2.12A9,9,0,0,0,606.87,340.72ZM476.59,390.08c-.49,2.3-1,4.59-1.48,6.89-.24,1.14-1.28,2.39.22,3.35s2.75,2.36,4.72,1.45c6-2.78,11.81-5.76,16.79-10.18,4.46-2.11,7.91-5.54,11.59-8.78-10.11,2.58-20.14,4.86-30.46,5.54A1.31,1.31,0,0,0,476.59,390.08Zm-30.06-2.22c-3.53-1-4.81.08-4.57,3.91.3,4.72.07,9.48.83,14.19a49.71,49.71,0,0,0,10.86,24.65c2.51-4.29,2.56-7.48-.79-9.26-2.92-1.54-2.56-3.38-2.31-5.67a7.36,7.36,0,0,0,2.19-7.66,51.67,51.67,0,0,1-1.53-14.76C451.35,388.28,451.58,388.28,446.53,387.86ZM587,301.92c-2-.28-4.41-.25-5.36,1.56-2,3.83-5.12,7.94-4.23,12.09.73,3.39-.48,5.5-1.65,7.87-5.38,11-5.1,22.93-6.18,34.64-.23,2.56,1.45,4.16,4.38,2.76,2.28-1.85,5-3.32,5.21-6.8.17-3,.41-6,.78-8.94,1.83-14.82,5.17-29.23,12.5-42.41,1.34-2.41,1.11-3.49-1.13-5a118.14,118.14,0,0,1-35.23-37.21c-.82-1.37-1.67-2.23-3.48-2.22q-41.37.08-82.75,0a3.41,3.41,0,0,0-3.32,1.82,122.3,122.3,0,0,1-36.06,38c-1.58,1.09-2.09,2-1,3.87,4.66,7.91,7.44,16.57,9.6,25.45.85,3.51,1.6,7,2.52,11.08,1.75-2.46,3.4-4.2,3.63-6.71,2.9-2,3.79-4.49,2.74-8-1.82-6.06-3.67-12.1-6-18-1.3-3.26-3.27-4.44-6.55-4-.07-1.91,1.64-2.38,2.73-3.26,5.94-4.77,11.87-9.53,16.93-15.28,2.22-2.51,4-6.37,8.51-3.36.05-2.58-4.5-6,1.77-6.24.56,0,.29-.75.31-1.22.16-3.94,2.35-6.66,5.46-8.78.26,3.23,2,4.33,5.21,4.32q33.83-.17,67.64,0c3.67,0,6.6-.41,8.32-3.95,9.33,13.76,20.12,26.14,33.75,35.86C586.73,300.33,587.72,300.78,587,301.92ZM451.7,322.87c1.05-1.53,1.76-2.5,2.41-3.52,5.4-8.38,10.86-16.73,16.14-25.2,1.26-2,2.42-2.58,4.8-2q44.13,10.74,88.29,21.27c3,.72,6.54,2.52,9,1.6s2.24-5.4,3.7-8.11c.18-.32.17-.75.37-1.05,1.11-1.62.44-2.63-.94-3.73a132.51,132.51,0,0,1-26.6-28.78,3.6,3.6,0,0,0-3.31-1.86q-34.29.09-68.59,0a3.26,3.26,0,0,0-3.1,1.51,138.3,138.3,0,0,1-27.08,29.35c-.74.59-1.72,1.09-1.15,2.42A150.79,150.79,0,0,1,451.7,322.87Zm116.07,14.65c-6.92,9.55-14.09,17.76-22.73,24.6-.52.41-1,.89-.78,1.56,1.35,5.06,2.73,10.11,4.26,15.73,2.35-2.6,4.92-4.37,5.73-6.73.51-1.47-1.72-3.82-2.6-5.83-1.33-3-1.49-5.71,1.12-8.52,2.83-3.06,5.6-4.31,9.52-2.52,1,.48,2,1.39,3.48,1.15C566.41,350.75,567,344.57,567.77,337.52ZM456.14,406.26a104.4,104.4,0,0,1,9-11.73c.84-.93,2.75-1.52,1.8-3.54s-2.39-2.37-4.28-2.27c-1.37.06-2.83.28-2.7-1.91.09-1.52-1-1.73-2.25-1.88-1.54-.19-2,.82-2.17,2A58.71,58.71,0,0,0,456.14,406.26Zm119-26.39c-1.39-1.55-2.64-2.92-3.87-4.32-2.12-2.41-4-5.21-3.06-8.43,1-3.41-.69-4.73-3.14-6-1.22-.62-2.44-1.26-3.71-1.76-1.1-.44-2.44-1.56-3.41-.37s.21,2.38.78,3.42c3.65,6.64,8.73,12.11,14.24,17.22C573.36,380.07,573.88,380.5,575.1,379.87Zm20-34.51c-5.36,4.38-5,11.11,1,16.87,4.38-4.25,4.35-4.24,1.91-9.76C597,350.12,596.07,347.7,595.13,345.36Zm-12.58,31c3.56-3.1,3.52-3.08,1.62-7.1a31.36,31.36,0,0,1-2-5.18c-.41-1.46-.48-3.23-2.58-2.66-1.84.49-2.24,2-1.88,3.88A28.44,28.44,0,0,0,582.55,376.33Zm27.2-28.25c-3.56-2.39-6.49-4.64-8.54-7.81-.72-1.11-1.61-.65-2.14.05-1.41,1.87,1.33,8.08,3.68,8.32C604.82,348.85,606.93,349.26,609.75,348.08Zm-21,15.12c-.7.24-2.37-1.18-2,1.2.28,1.89.8,4.5,2.34,4.63,1.7.14,3.78-2.25,3.87-3.88C593.1,363.08,590.6,363.22,588.79,363.2Zm-6-5.44c1.91.91,4.2,2,5.31.84s-.74-3.09-1-4.88C585,354.67,584,356.16,582.75,357.76Zm-28,5.71a4.06,4.06,0,0,0-.18.68c0,.08.15.18.22.27.11-.16.29-.32.3-.48S554.94,363.65,554.8,363.47Z" transform="translate(-408.26 -250.6)"/><path class="cls-4" d="M551.53,452.48l5.64.15,1.42.44,0,0a1.85,1.85,0,0,0,1.76,1l-.08-.05c4.61,5.2,4.9,11.48,4.29,17.9a44.28,44.28,0,0,1-13.26,27.66l-.62.51-1.11.9-.25.16-.94.63.07,0-.85.72c-1.88.47-3,2.49-5.14,2.43l-7.53-.05a.37.37,0,0,0-.43-.14l-1.08-.55-3.75-3.7a30,30,0,0,1-1.65-12.78c.55-6.4,2.91-12.25,5.31-18.1l5.43-8.37,6-5.81,0,0a10.72,10.72,0,0,0,4.16-2.17l.15,0c.86-.11,1.9.31,2.41-.83Zm3.63,21.37c-.1-2.41.3-5-2.1-6.16s-4.8.18-6.84,1.75a4.87,4.87,0,0,0-.82.75A28.19,28.19,0,0,0,538.34,489c0,3.59,2.71,5.31,6.15,4.26a11.29,11.29,0,0,0,6-4.84A28.66,28.66,0,0,0,555.16,473.85Z" transform="translate(-408.26 -250.6)"/><path class="cls-4" d="M468.09,456a18.82,18.82,0,0,0,6.68-.63c1.3.19,3.19-.59,3.1,1.89-1.16,1.43-1,3.2-1.27,4.87-.66,1.72-1,3.63-2,5.11-4.26,6.23-8.73,12.33-13.09,18.5-1.33,1.88-2.56,3.83-4.2,6.31,2.15,0,3.59,0,5,0,2.72-.09,6.3-1.33,7.93,0,2.07,1.61.2,5.35.57,8.16l-.36,1.72-1.94.23a4.11,4.11,0,0,0-3.36.17l-1.32.07a34.3,34.3,0,0,0-10.64.69c-3.57,1.82-7.48.56-11.18,1.23a1.73,1.73,0,0,0-.71-.18c.2-4.25-1.32-8.71,1.57-12.62l1.09-1.29,1.58-2.19.61-.82.63-.89c.32-.44.65-.87,1-1.3l.61-.85,1.56-2.14,1.28-1.77,9.85-13a44.25,44.25,0,0,0-11.78,1.24c-1.12,0-1.37-.79-1.47-1.69.53-3.08,1.07-6.16,1.6-9.23l.07-.05Z" transform="translate(-408.26 -250.6)"/><path class="cls-5" d="M580.75,512.3h-1.5c-8.55,1.27-17.1.65-25.65,0a10.23,10.23,0,0,0-3.71.22c-7.9,2.43-15.75.67-23.66.09-5.89-.44-11.77-1.95-17.8-.53a39.77,39.77,0,0,1-10,.89c-9.55-.24-19.09,1.34-28.65.07-7.62-1-15.39-.65-22.92-2.41-2.57-.6-5.6-.91-6.31-4.36,2,.25,4,.4,5.9.79,7.23,1.44,14.61,1.15,21.88,2.07,10.19,1.3,20.37-.08,30.55,0a6.24,6.24,0,0,0,1.09-.28c7.23-1.32,14.39-2.44,21.85-1.19,7,1.17,14.06,2.38,21.17,1.57,5-.57,10-1.76,15.17-1.53,1.75.07,3.57,1.62,5.34,0l6,0c4.45,1.26,8.8,1.61,12.74-1.5,1.5-.09,3,.09,4.37-.88,1.16.15,2.18.06,2.34-1.43a2.32,2.32,0,0,0,.82-2.18l0,0,1.41-.09c2.8-1.77,2.25-4.84,2.21-7.27a92.06,92.06,0,0,1,3.39-25.73c.69-2.55,1.59-5.42.33-8.19,0-.85.12-1.7-.66-2.32a.86.86,0,0,1,.07-.61l.06-1c-.24-1.08-1-1.55-1.95-2.06-5.79-3.1-12.11-3.24-18.44-3.78-4.3-.37-9,.51-12.67-2.93.54-1.32,1.82-1.76,2.9-2.44,1.67,1.63,3.8,1.5,5.91,1.75,6.26.74,12.67.42,18.72,2.76a13.94,13.94,0,0,1,8.91,15.77c-1.61,8.76-4.28,17.34-3.62,26.49a18.81,18.81,0,0,1-1.55,8.72C592,507.11,586.26,509.52,580.75,512.3Z" transform="translate(-408.26 -250.6)"/><path class="cls-5" d="M454.68,437.38c5.59-1.52,11.18-3.09,16.79-4.56,2-.53,4.11-.81,6.16-1.24,1.2-.25,2.53-.38,2.74-2l4.05.28c2.1,1.58,4.76,1.51,7.11,2.37.27.9,1,.74,1.67.72,1.29,1.22,3.79,1,4.38,3.58-3.51-.52-6.45-2.31-9.79-2.13-2.06-.17-2.06-.17-2.08,3.18,0,5.15,0,5.15-5,4.32a1,1,0,0,0-1.18.61,6,6,0,0,1-4.12,1.51,89.44,89.44,0,0,0-12.54,1.63A44.09,44.09,0,0,1,454.68,437.38Z" transform="translate(-408.26 -250.6)"/><path class="cls-6" d="M447.79,466.71c.1.9.35,1.67,1.47,1.69a.75.75,0,0,0,.14.68c3.17,4.11.83,7.57-1.2,11.14-1.37,2.41-3.85,4.24-3.9,7.34h0c-1.41.14-1.57,1.12-1.5,2.24a4.29,4.29,0,0,1-.23.63c-2.75.21-3.27,2.22-3.44,4.4-.14,1.83-.12,3.67-.17,5.51-1.62-.52-1.29-1.89-1.41-3.1a19.45,19.45,0,0,1,2.16-10.86c3.68-7.1,5.78-14.44,5.48-22.56-.12-3.22.47-7,4-8.66,4-1.91,8-4,12.61-4.41l2.76,2.26c-2.35,1.25-5,1.08-7.48,1.62-2.66.56-5.71.21-7.65,2.79l-.07.05C446.75,459.9,446,464.07,447.79,466.71Z" transform="translate(-408.26 -250.6)"/><path class="cls-6" d="M563.49,447.81c3.64,3.44,8.37,2.56,12.67,2.93,6.33.54,12.65.68,18.44,3.78.94.51,1.71,1,1.95,2.06l-.86.26c-2.38-.6-4.79-1.1-7.13-1.84-1.41-.45-2.37-.26-3.07,1.05-2.27,1.72-4.53,3.17-6.58-.28-.28-.8-.35-1.8-1.59-1.71l-1.28.5-.2.05a1.45,1.45,0,0,0-1.86.74l0,0c-4.72,1.12-9.49,2.67-13.72-1.32l.08.05a1.32,1.32,0,0,0-1.76-1l0,0a1.1,1.1,0,0,0-.17-.61Z" transform="translate(-408.26 -250.6)"/><path class="cls-6" d="M462.91,445.64A89.44,89.44,0,0,1,475.45,444a6,6,0,0,0,4.12-1.51c3.42,2.27,6.31,5.38,10.4,6.58l1.6.24,0,0c-3.23,1.39-6.48.73-9.72.1a5.28,5.28,0,0,1-5.1,2.16,12.33,12.33,0,0,0-5.43.76A48.59,48.59,0,0,1,462.91,445.64Z" transform="translate(-408.26 -250.6)"/><path class="cls-7" d="M471.29,452.32a12.33,12.33,0,0,1,5.43-.76,5.26,5.26,0,0,0,5.1-2.17c.75,3,4.85,2.16,5.74,5-1.44.14-2.89.3-4.34.42-1.67.13-3.16.46-3.31,2.56l-2-.13c.09-2.48-1.8-1.7-3.1-1.89Z" transform="translate(-408.26 -250.6)"/><path class="cls-5" d="M569.87,429.71l3.25.86c-2.2,4.61-6.58,7.35-9.58,11.28l-3.66-1c1-1.11,2-2.21,3-3.32l1.63-1.65,1.16-1.28c0-1,1.52-1.25,1.27-2.42,1.08,0,1.56-.42,1.25-1.53l.1.14C569.17,431,569.23,429.92,569.87,429.71Z" transform="translate(-408.26 -250.6)"/><path class="cls-7" d="M549.11,453.19l-.16,0c-1.82-.12-3.59-.14-4.15,2.17l0,0-3.16-.09,12.06-9.14,3.92,1c-1.55,2.33-4.49,3.05-6.12,5.29v-.12A2.38,2.38,0,0,0,549.11,453.19Z" transform="translate(-408.26 -250.6)"/><path class="cls-7" d="M449.46,457.43c1.94-2.58,5-2.23,7.65-2.79,2.49-.54,5.13-.37,7.48-1.62a8.08,8.08,0,0,1,3.5,3Z" transform="translate(-408.26 -250.6)"/><path class="cls-6" d="M557.65,447.19l-3.92-1,6.15-5.3,3.66,1C562,444.14,559.58,445.37,557.65,447.19Z" transform="translate(-408.26 -250.6)"/><path class="cls-8" d="M558.41,452.46a1.1,1.1,0,0,1,.17.61l-1.41-.44Z" transform="translate(-408.26 -250.6)"/><path class="cls-9" d="M451.7,322.87a150.79,150.79,0,0,0-6.06-18.08c-.57-1.33.41-1.83,1.15-2.42A138.3,138.3,0,0,0,473.87,273a3.26,3.26,0,0,1,3.1-1.51q34.29,0,68.59,0a3.6,3.6,0,0,1,3.31,1.86,132.51,132.51,0,0,0,26.6,28.78c1.38,1.1,2,2.11.94,3.73-.2.3-.19.73-.37,1.05-1.46,2.71-1.12,7.16-3.7,8.11s-6-.88-9-1.6q-44.16-10.59-88.29-21.27c-2.38-.58-3.54,0-4.8,2-5.28,8.47-10.74,16.82-16.14,25.2C453.46,320.37,452.75,321.34,451.7,322.87Z" transform="translate(-408.26 -250.6)"/><path class="cls-10" d="M426.19,379.84a17.91,17.91,0,0,1-2.2-.09c-1.16-.16-2.88.45-3.34-.67s.81-2.37,1.74-3.32l.9-.73-.07.07c.69-.3,1.06-.76.79-1.55v0c3.06-.22,3.68-3.85,6.34-4.6.77.75-.1,2,1.22,2.86l11.39-20c-1.53-.41-1.76,1.31-3.21.78.77-1.46,1.56-2.83,2.22-4.27,1.54-3.34,4.21-6.17,4.56-10l0,0c.57,0,.73-.35.77-.83a122.15,122.15,0,0,1,11.95-18.82c8,1.55,15.77-.08,23.92-2.17-1.48,2.75-4.34,3-6,4.92,2,.41,3.69-.91,5.62.27-5.06,2.29-10.2,3.11-15.38,3.86-2.17.31-5.6-.88-6.28.68-1,2.31,2.75,3.19,4,5.26a3.63,3.63,0,0,1-3.62.43c-1.48-.49-2.32,0-3,1.37a118.66,118.66,0,0,1-10.61,16.73c-.42.56-1.19,1.13-.77,1.93s1.33.53,2,.5A71.49,71.49,0,0,0,464.11,350c7.35-2,13.61-6,19.84-10.19l.23.23c-.67,3.83-4.07,6-5.92,9.58,7.76-1.27,14.23-4.84,20.77-8.22h0c-.09,2.45-3.22,3.22-3.45,5.92,3.1-.17,5.42-2.07,8.7-2.77-8.43,10.38-18.94,16.66-31.49,21.4,3.17.27,5.37.6,7.58.08l2.83-.1a26.64,26.64,0,0,0,4.45.15c17.59-2.21,33-9.18,45.84-21.48.55-.52,1.53-1,1.15-2-.91-.67-1.89.8-2.73-.2,1.47-2.13,3.94-2.85,5.91-4.25,1.73-1,3.5-1.83,4.7-3.48,4.22-2,6.7-5.79,9.69-9.08.57-.63,1.19-1.55,2.15-.91,1.18.8,0,1.54-.36,2.16A111.44,111.44,0,0,1,535.8,348c-5.13,4.68-10.54,9.06-15.82,13.57-6.17,3.63-12.26,7.41-19.31,10.2a7.19,7.19,0,0,0,4.13-.19c18.67-4.36,33.53-14.78,46-29,3.69-4.19,7.23-8.56,9-14l-.06,0c.64-.33.69-1,.8-1.56.94-1.51,2.31-1.63,3.87-1.25a11.73,11.73,0,0,0,5.17.3c.38,1.24-.39,2.14-1,3.07C549.15,361,520.81,379.06,484,384c-3.08.41-6.23.28-9.35.4-3.74-.58-3.47-4.16-4.65-6.7-1.59.86-1.09,3.05-3,3.47-1-7.41-2.06-14.74-3.21-22.94-1.72,2.33-2.86,3.89-3.26,5.89a.2.2,0,0,0-.18.28c-3.15,3.17-4.25,7.81-8.08,11.67v-7.8a32.15,32.15,0,0,0-2.39,3.94c-1.62,4.09-4.76,5.62-8.94,5.95C436,378.54,431.12,379.26,426.19,379.84Z" transform="translate(-408.26 -250.6)"/><path class="cls-11" d="M569.87,429.71c-.64.21-.7,1.28-1.62,1.08-.51-1.4.58-2.31,1.06-3.4,1.81-4.12,3.39-8.26,1.92-12.86-.11-1.12-.22-2.23-.32-3.35a2.59,2.59,0,0,0-1.21-2.8,63.2,63.2,0,0,1-22.1,23.19c-.48.29-1.28.6-1,1.36s1.16.75,1.92.61l2.19,0c1.25,2.67-2.44,3.76-2,6.18L547.39,441l-4.1-1.24c-.54-2.88.89-5.58.74-8.42,4-10.47,10.24-19.53,17.55-27.92.43-.49,1.16-1,.33-2.21-3.73,2.22-6.42,5.69-9.83,8.25-1-.25-1.67.39-2.31,1-4.11,3.63-7.65,7.75-12.4,10.83-6.18,4-9,10.64-10.19,17.86-.34,2.15-.69,4.18-2.89,5.3-1.42.73-1.26,2-1,3.27a2.45,2.45,0,0,1-2.34.83c-5.5-1.28-11.09-.3-16.62-.62l-.22-.9.14-8.92c.7-6.48.52-6.92-5.94-8.87-2.38-.72-3.77-1.2-2.51-4.12s.25-5.26-2.6-7.26a117.08,117.08,0,0,1-14.5-11.26c9.54-4.2,18-9.75,26.21-15.79,1.85,1.91.47,3.92.24,5.91-.11.95-1.09,2-.35,2.8,1,1,2.1-.09,3.07-.45a53.3,53.3,0,0,0,12.14-6.73c1.23,1.48-1,2.48.24,3.73a44,44,0,0,0,15.25-11.7c2.7-3.2,5.14-6.63,7.7-9.95,4.25,8.92-.87,16.08-4.71,23.28-3.21,6-7.64,11.28-12.3,16.4,4.3-1.67,7.42-4.9,10.64-8,1.89,0,2.58-1.87,4-2.6l.45.43c.17.87-.9,1.67,0,3.16a39.84,39.84,0,0,0,9.18-12.27c1.58-3.46,3.61-4.32,7.2-4.07,3.13.21,6.33,1.31,9.51.14,6.22.59,9.11,5.56,12.44,9.76,1.34,1.68.3,4.1,0,6.15C578.32,415.21,574.64,422.7,569.87,429.71Zm-73.26-19.83c2.14,2.76,5.4.08,8.09,1.8l-6.12,6.42c2.71,1.19,5,.15,7.15-.39,7.41-1.87,13.49-5.74,17.16-12.75,3.5-4.36,7.25-8.55,9.41-13.82.09-.28.33-.72.25-.79-.34-.29-.57,0-.73.31a45.37,45.37,0,0,0-3.44,3.35,30.44,30.44,0,0,1-16.2,9.92c-6.81,1.79-13.73,3-20.82,4.24C492.87,410,494.92,409.37,496.61,409.88Zm66.66-8.56c-.13-.25-.24-.61-.32-.6a1.73,1.73,0,0,0-.91.3c-.38.34,0,.73.27.74S562.94,401.49,563.27,401.32Z" transform="translate(-408.26 -250.6)"/><path class="cls-10" d="M445.3,331.73c-.23,2.51-1.88,4.25-3.63,6.71-.92-4-1.67-7.57-2.52-11.08-2.16-8.88-4.94-17.54-9.6-25.45-1.12-1.9-.61-2.78,1-3.87a122.3,122.3,0,0,0,36.06-38,3.41,3.41,0,0,1,3.32-1.82q41.39.06,82.75,0c1.81,0,2.66.85,3.48,2.22a118.14,118.14,0,0,0,35.23,37.21c2.24,1.53,2.47,2.61,1.13,5-7.33,13.18-10.67,27.59-12.5,42.41-.37,3-.61,5.95-.78,8.94-.21,3.48-2.93,4.95-5.21,6.8a190.75,190.75,0,0,1,2.65-25.56c2-11.6,5.8-22.59,10.39-33.36.68-1.14-.31-1.59-.95-2.05-13.63-9.72-24.42-22.1-33.75-35.86-1.27-1.16-2.84-.66-4.28-.67q-36.4,0-72.82,0c-1.35,0-2.71.19-4.07.29-3.11,2.12-5.3,4.84-5.46,8.78,0,.47.25,1.2-.31,1.22-6.27.2-1.72,3.66-1.77,6.24-4.54-3-6.29.85-8.51,3.36-5.06,5.75-11,10.51-16.93,15.28-1.09.88-2.8,1.35-2.72,3.26A186.92,186.92,0,0,1,445.3,331.73Z" transform="translate(-408.26 -250.6)"/><path class="cls-12" d="M499,341.37c-6.54,3.38-13,6.95-20.77,8.22,1.85-3.56,5.25-5.75,5.92-9.58l.24-.5-.47.27c-6.23,4.15-12.49,8.16-19.84,10.19A71.49,71.49,0,0,1,449,352.49c-.7,0-1.61.29-2-.5s.35-1.37.77-1.93a118.66,118.66,0,0,0,10.61-16.73c.68-1.33,1.52-1.86,3-1.37a3.63,3.63,0,0,0,3.62-.43c-1.21-2.07-5-2.95-4-5.26.68-1.56,4.11-.37,6.28-.68,5.18-.75,10.32-1.57,15.38-3.86-1.93-1.18-3.67.14-5.62-.27,1.7-1.93,4.56-2.17,6-4.92-8.15,2.09-15.92,3.72-23.92,2.17.78-2.94,2.79-3.64,5.65-3.58a41.6,41.6,0,0,0,30-11.26c2.11-1.94,2.49-.89,2.94,1.13,2.73,12.29-.63,23.12-7.84,33-1.57,2.16-3.33,4.19-4.77,6.53,8.84-2.79,15.88-8.36,23-14.12-1,5-4,8.93-6.86,13,4.34-1,6.6-5.05,10.47-6.56h0c-2.94,7.22-8.11,12.73-13.88,17.71A50.62,50.62,0,0,1,483,363.7c-1.1.43-2.45.75-2.67,2.29-2.21.52-4.41.19-7.58-.08,12.55-4.74,23.06-11,31.49-21.4-3.28.7-5.6,2.6-8.7,2.77.23-2.7,3.36-3.47,3.45-5.92l.36-.26c-.07,0-.17,0-.21,0A1,1,0,0,0,499,341.37Zm-6.4-19.84a116.72,116.72,0,0,1-27.33,7.4c3.27,2,6.71,2.55,10.19,3.11-3.4,1-6.73,1.94-10.26,1.83-1.37,0-2.75-.1-3.59,1.39-2,3.46-4,6.89-6,10.35-.35.61-.95,1.35-.36,2s1.38.18,2.1,0a58.1,58.1,0,0,0,22.38-9.93C485.41,333.5,490,328.42,492.63,321.53Z" transform="translate(-408.26 -250.6)"/><path class="cls-12" d="M471.17,263.62c1.36-.1,2.72-.28,4.07-.29q36.42,0,72.82,0c1.44,0,3-.49,4.28.67-1.72,3.54-4.65,4-8.32,3.95q-33.81-.24-67.64,0C473.13,268,471.43,266.85,471.17,263.62Z" transform="translate(-408.26 -250.6)"/><path class="cls-12" d="M587,301.92c-4.59,10.77-8.44,21.76-10.39,33.36A190.75,190.75,0,0,0,574,360.84c-2.93,1.4-4.61-.2-4.38-2.76,1.08-11.71.8-23.67,6.18-34.64,1.17-2.37,2.38-4.48,1.65-7.87-.89-4.15,2.23-8.26,4.23-12.09C582.63,301.67,585,301.64,587,301.92Z" transform="translate(-408.26 -250.6)"/><path class="cls-11" d="M567.77,337.52c-.73,7.05-1.36,13.23-2,19.44-1.47.24-2.44-.67-3.48-1.15-3.92-1.79-6.69-.54-9.52,2.52-2.61,2.81-2.45,5.49-1.12,8.52.88,2,3.11,4.36,2.6,5.83-.81,2.36-3.38,4.13-5.73,6.73-1.53-5.62-2.91-10.67-4.26-15.73-.18-.67.26-1.15.78-1.56C553.68,355.28,560.85,347.07,567.77,337.52Z" transform="translate(-408.26 -250.6)"/><path class="cls-12" d="M520,361.59c5.28-4.51,10.69-8.89,15.82-13.57A111.44,111.44,0,0,0,554,326.79c.41-.62,1.54-1.36.36-2.16-1-.64-1.58.28-2.15.91-3,3.29-5.47,7.11-9.69,9.08,2.8-3.91,5.58-7.82,8.4-11.71a1.82,1.82,0,0,1,2-.68c5.25,1,10.51,1.9,15.75,2.91.38.07.65.67,1,1a11.73,11.73,0,0,1-5.17-.3c-1.56-.38-2.93-.26-3.87,1.25-.26.52-.53,1-.8,1.56l.06,0c-1.37,0-1.83,1.17-2.51,2-9.44,11.68-20.25,21.81-33.21,29.52C522.82,360.93,521.6,361.84,520,361.59Z" transform="translate(-408.26 -250.6)"/><path class="cls-10" d="M543.24,374.37c-2.56,3.32-5,6.75-7.7,9.95A44,44,0,0,1,520.29,396c-1.24-1.25,1-2.25-.24-3.73A53.3,53.3,0,0,1,507.91,399c-1,.36-2.11,1.44-3.07.45-.74-.77.24-1.85.35-2.8.23-2,1.61-4-.24-5.91,2.15-1.64,4-3.75,6.66-4.59l.66.66c-.73,2.46-1.12,5-2.92,7.92,6.87-2.17,11.71-6.21,16.81-9.8,1.1,1.16-.41,1.8-.37,2.69l-1,1.34c-.24.28-1,.4-.51.92.34.35.86.06,1.07-.46l1.15-1c6.54-4.79,11.31-11.09,15.51-19C542.57,371.67,542.9,373,543.24,374.37Z" transform="translate(-408.26 -250.6)"/><path class="cls-12" d="M537.8,338.1c-2,1.4-4.44,2.12-5.91,4.25.84,1,1.82-.47,2.73.2.38,1.05-.6,1.49-1.15,2-12.86,12.3-28.25,19.27-45.84,21.48a26.64,26.64,0,0,1-4.45-.15c2.34-2.12,5.47-1.94,8.25-2.69,13.08-3.52,25.55-8.36,36.63-16.35.15-.11.15-.43.23-.67-1.57-1-3.08,1.12-5-.17a144.57,144.57,0,0,0,17-16.66l0,0C540.68,332.64,537.75,335,537.8,338.1Z" transform="translate(-408.26 -250.6)"/><path class="cls-10" d="M450.55,415.68c-.25,2.29-.61,4.13,2.31,5.67,3.35,1.78,3.3,5,.79,9.26A49.71,49.71,0,0,1,442.79,406c-.76-4.71-.53-9.47-.83-14.19-.24-3.83,1-4.95,4.57-3.91,0,2.37,0,4.73.09,7.1C446.78,402.08,447.28,409.14,450.55,415.68Z" transform="translate(-408.26 -250.6)"/><path class="cls-12" d="M426.19,379.84c4.93-.58,9.84-1.3,14.78-1.7,4.18-.33,7.32-1.86,8.94-5.95a32.15,32.15,0,0,1,2.39-3.94v7.8c3.83-3.86,4.93-8.5,8.08-11.67.93,2.08-.65,3.54-1.33,5.19-1.19,2.88-2.56,5.67-3.8,8.53-2.86,6.57-2.87,6.76-9.74,5.9-5.91-.73-11.76-1.93-17.64-2.91A1.83,1.83,0,0,1,426.19,379.84Z" transform="translate(-408.26 -250.6)"/><path class="cls-11" d="M487.79,434.39c3.34-.18,6.28,1.61,9.79,2.13-.59-2.62-3.09-2.36-4.38-3.58l1.64-.59c1.52.46,3,1,4.56,1.36,1.92.46,2,1.6,1.32,3.08-.6-.32-1.11-1-1.89-.56-.12,0-.18.48-.09.61.5.72,1.21.59,1.92.38l.45.77a39.22,39.22,0,0,0-.49,9l-.3,3.66-5.23.32c-1.19-.54-2-1.84-3.55-1.66l0,0c-.08-1-.86-1.32-1.56-1.73-1.92-2.2-2.36-4.79-2.17-7.62C488,438.12,487.81,436.25,487.79,434.39Z" transform="translate(-408.26 -250.6)"/><path class="cls-10" d="M567.25,390.84c-3.18,1.17-6.38.07-9.51-.14-3.59-.25-5.62.61-7.2,4.07A39.84,39.84,0,0,1,541.36,407c-.94-1.49.13-2.29,0-3.16.24-.27.42-.56,0-.82-.05,0-.31.25-.48.39-1.42.73-2.11,2.59-4,2.6,4.38-6.5,8.89-12.92,11.06-20.61a1.49,1.49,0,0,1,2.29-1.08C555.84,386.67,561.86,387.92,567.25,390.84Z" transform="translate(-408.26 -250.6)"/><path class="cls-10" d="M484.42,429.85l-4.05-.28-3.19-.65c.08-5.86-.86-7.3-6-9.14a31.53,31.53,0,0,0-5.32-1.75c-3-.48-3.29-2.22-2.69-4.59.64-2.58,1.34-5.14,2-7.7l-.87-.61c-.92,1.16-1.87,2.3-2.75,3.49-1.16,1.59-1.48-.33-2.21-.48a54.61,54.61,0,0,1,8.55-11.28c.51-.55,1-1.74,2.05-1,.9.64.72,1.59.6,2.68-.44,4.18-2.8,7.56-4.38,11.27a5.55,5.55,0,0,0,3.76,7.92,2.12,2.12,0,0,0,.36.1c4.71.61,8,2.71,8.34,7.93a4.41,4.41,0,0,0,.58,1.35c0,.08.21.1.42.19,1.23-.67.53-2.34,1.83-3.16-.14,3.65,2.28,3.58,5.05,3.5,3.58-.11,4,.32,4.37,2.41C488.78,428.32,486.58,429.74,484.42,429.85Zm-19.48-15.63-.12.21.19,0Z" transform="translate(-408.26 -250.6)"/><path class="cls-1" d="M476.59,390.08a1.31,1.31,0,0,1,1.38-1.73c10.32-.68,20.35-3,30.46-5.54-3.68,3.24-7.13,6.67-11.59,8.79-2.36,0-4.72-.08-7.08-.07-.48,0-1.72-.2-1.19.64,1.92,3.06-1,1.42-1.42,1.38A26.29,26.29,0,0,1,476.59,390.08Z" transform="translate(-408.26 -250.6)"/><path class="cls-11" d="M456.14,406.26a58.71,58.71,0,0,1-.64-19.35c.16-1.16.63-2.17,2.17-2,1.21.15,2.34.36,2.25,1.88-.13,2.19,1.33,2,2.7,1.91,1.89-.1,3.39.39,4.28,2.27s-1,2.61-1.8,3.54A104.4,104.4,0,0,0,456.14,406.26Z" transform="translate(-408.26 -250.6)"/><path class="cls-1" d="M446.52,338.32c-.35,3.87-3,6.7-4.56,10-.66,1.44-1.45,2.81-2.22,4.27,1.45.53,1.68-1.19,3.21-.78l-11.39,20c-1.32-.85-.45-2.11-1.22-2.86-2.66.75-3.28,4.38-6.34,4.6,2.32-5.08,5.7-9.52,8.71-14.17C437.28,352.35,441.44,345,446.52,338.32Z" transform="translate(-408.26 -250.6)"/><path class="cls-12" d="M445.3,331.73a186.92,186.92,0,0,0-9.83-30c3.27-.46,5.24.72,6.54,4,2.36,5.9,4.21,11.94,6,18C449.09,327.24,448.2,329.75,445.3,331.73Z" transform="translate(-408.26 -250.6)"/><path class="cls-12" d="M476.59,390.08a26.29,26.29,0,0,0,10.56,3.47c.4,0,3.34,1.68,1.42-1.38-.53-.84.71-.64,1.19-.64,2.36,0,4.72,0,7.08.07-5,4.41-10.82,7.39-16.79,10.17-2,.91-3.3-.55-4.72-1.45s-.46-2.21-.22-3.35C475.6,394.67,476.1,392.38,476.59,390.08Z" transform="translate(-408.26 -250.6)"/><path class="cls-11" d="M459.35,408.14c.73.15,1,2.07,2.21.48.88-1.19,1.83-2.33,2.75-3.49l.87.61c-.68,2.56-1.38,5.12-2,7.7-.6,2.37-.26,4.11,2.69,4.59a31.53,31.53,0,0,1,5.32,1.75c5.15,1.84,6.09,3.28,6,9.14-3.45.16-5.07-1.55-5.23-4.95-.09-2-1.24-3-3.31-3.26-3.66-.53-7.12-1.95-10.86-2.3-2.32-.21-3.77-1.56-2-4.2C457.08,412.26,458.17,410.16,459.35,408.14Z" transform="translate(-408.26 -250.6)"/><path class="cls-12" d="M450.55,415.68c-3.27-6.54-3.77-13.6-3.93-20.72-.05-2.37-.06-4.73-.09-7.1,5.05.42,4.82.42,4.68,5.4A51.67,51.67,0,0,0,452.74,408,7.36,7.36,0,0,1,450.55,415.68Z" transform="translate(-408.26 -250.6)"/><path class="cls-12" d="M460.56,364.1c.4-2,1.54-3.56,3.26-5.89,1.15,8.2,2.17,15.53,3.21,22.94,1.87-.42,1.37-2.61,3-3.47,1.18,2.54.91,6.12,4.65,6.7-3,1-6.15.35-9.23.5-2.11.11-2.28-1.32-2.37-2.95-.25-4.44-.52-8.89-1-13.31A8,8,0,0,0,460.56,364.1Z" transform="translate(-408.26 -250.6)"/><path class="cls-10" d="M575.1,379.87c-1.22.63-1.74.2-2.17-.2-5.51-5.11-10.59-10.58-14.24-17.22-.57-1-1.63-2.36-.78-3.42s2.31-.07,3.41.37c1.27.5,2.49,1.14,3.71,1.76,2.45,1.23,4.15,2.55,3.14,6-.95,3.22.94,6,3.06,8.43C572.46,377,573.71,378.32,575.1,379.87Z" transform="translate(-408.26 -250.6)"/><path class="cls-11" d="M595.13,345.36c.94,2.34,1.84,4.76,2.89,7.11,2.44,5.52,2.47,5.51-1.91,9.76C590.1,356.47,589.77,349.74,595.13,345.36Z" transform="translate(-408.26 -250.6)"/><path class="cls-11" d="M582.55,376.33a28.44,28.44,0,0,1-4.85-11.06c-.36-1.84,0-3.39,1.88-3.88,2.1-.57,2.17,1.2,2.58,2.66a31.36,31.36,0,0,0,2,5.18C586.07,373.25,586.11,373.23,582.55,376.33Z" transform="translate(-408.26 -250.6)"/><path class="cls-11" d="M609.75,348.08c-2.82,1.18-4.93.77-7,.56-2.35-.24-5.09-6.45-3.68-8.32.53-.7,1.42-1.16,2.14-.05C603.26,343.44,606.19,345.69,609.75,348.08Z" transform="translate(-408.26 -250.6)"/><path class="cls-11" d="M588.79,363.2c1.81,0,4.31-.12,4.2,1.95-.09,1.63-2.17,4-3.87,3.88-1.54-.13-2.06-2.74-2.34-4.63C586.42,362,588.09,363.44,588.79,363.2Z" transform="translate(-408.26 -250.6)"/><path class="cls-6" d="M500.62,447a39.22,39.22,0,0,1,.49-9l3.18.07c-.05,3-.09,5.94-.14,8.92Z" transform="translate(-408.26 -250.6)"/><path class="cls-11" d="M582.75,357.76c1.24-1.6,2.25-3.09,4.28-4,.29,1.79,2.14,3.75,1,4.88S584.66,358.67,582.75,357.76Z" transform="translate(-408.26 -250.6)"/><path class="cls-10" d="M573.23,385.56c-4.51-1.57-6.81-5.45-9.43-9,3.11,3,7,5.27,9.41,9Z" transform="translate(-408.26 -250.6)"/><path class="cls-11" d="M607.79,338.29a12.8,12.8,0,0,1,5,6.24,11.28,11.28,0,0,1-5.87-3.81A2.62,2.62,0,0,1,607.79,338.29Z" transform="translate(-408.26 -250.6)"/><path class="cls-11" d="M484.42,429.85c2.16-.11,4.36-1.53,6.46.21.16.25.32.5.49.75l.16,1.41C489.18,431.36,486.52,431.43,484.42,429.85Z" transform="translate(-408.26 -250.6)"/><path class="cls-10" d="M607.79,338.29a2.62,2.62,0,0,0-.92,2.43,9,9,0,0,1-3.13-4.55A5.75,5.75,0,0,1,607.79,338.29Z" transform="translate(-408.26 -250.6)"/><path class="cls-10" d="M491.53,432.22l-.16-1.41c1.19.44,2.72.11,3.47,1.54l-1.64.59C492.53,433,491.8,433.12,491.53,432.22Z" transform="translate(-408.26 -250.6)"/><path class="cls-10" d="M559.63,372.22a5,5,0,0,1-2-3.09c1.7.12,1.84,1.67,2.63,2.53Z" transform="translate(-408.26 -250.6)"/><path class="cls-12" d="M575.6,387.75c1.1.08,2.19.17,2.6,1.76-1.51.33-2.08-.74-2.77-1.6Z" transform="translate(-408.26 -250.6)"/><path class="cls-12" d="M573.21,385.59a2.39,2.39,0,0,1,2.39,2.16l-.17.16c-1.24-.31-2.15-.92-2.2-2.35Z" transform="translate(-408.26 -250.6)"/><path class="cls-10" d="M560.22,371.66l1.93,2.55-.54.63-2-2.62Z" transform="translate(-408.26 -250.6)"/><path class="cls-10" d="M500.66,437.22c-.71.21-1.42.34-1.92-.38-.09-.13,0-.56.09-.61.78-.41,1.29.24,1.89.56l.15.24Z" transform="translate(-408.26 -250.6)"/><path class="cls-10" d="M556.08,366c.71.59,1.41,1.19,1.2,2.36-1.19-.18-1.28-1.16-1.6-2C555.81,366.29,556,366.16,556.08,366Z" transform="translate(-408.26 -250.6)"/><path class="cls-12" d="M540.24,329.35l.17-.65.33.22-.46.47Z" transform="translate(-408.26 -250.6)"/><path class="cls-12" d="M511.77,336.87l.12-.65.33.18-.45.47Z" transform="translate(-408.26 -250.6)"/><path class="cls-1" d="M424,373.55c.27.79-.1,1.25-.79,1.55A1.09,1.09,0,0,1,424,373.55Z" transform="translate(-408.26 -250.6)"/><path class="cls-10" d="M511.61,386.17c.33-.44.89-.7,1.22-.33.48.54-.28.7-.56,1Z" transform="translate(-408.26 -250.6)"/><path class="cls-10" d="M554.8,363.47c.14.18.34.32.34.47s-.19.32-.3.48c-.07-.09-.23-.19-.22-.27A4.06,4.06,0,0,1,554.8,363.47Z" transform="translate(-408.26 -250.6)"/><path class="cls-10" d="M562.15,374.21c.38.27.75.59.27,1-.08.07-.53-.26-.81-.4Z" transform="translate(-408.26 -250.6)"/><path class="cls-10" d="M555.68,366.42c-.07-.31-.25-.84-.17-.88.46-.26.46.21.57.48C556,366.16,555.81,366.29,555.68,366.42Z" transform="translate(-408.26 -250.6)"/><path class="cls-1" d="M423.29,375l-.9.73C422.56,375.35,422.62,374.82,423.29,375Z" transform="translate(-408.26 -250.6)"/><path class="cls-1" d="M447.26,337.53c0,.48-.2.84-.77.83Z" transform="translate(-408.26 -250.6)"/><path class="cls-8" d="M560.31,454c4.23,4,9,2.44,13.72,1.32a5.48,5.48,0,0,1-3.25,1.67c-2.82.79-3.58,2.28-2.83,5.21,1.18,4.58,1.9,9.28,2.76,13.94a7.35,7.35,0,0,1-.35,4.75,168.16,168.16,0,0,1-11,19.95c-.47-1.25,0-2.42.26-3.63.16-.82.47-1.85-.45-2.36s-1.51.5-2.15,1c-1.79,1.41-2.87,3.89-5.69,3.71A44.28,44.28,0,0,0,564.6,471.9C565.21,465.48,564.92,459.2,560.31,454Z" transform="translate(-408.26 -250.6)"/><path class="cls-8" d="M533.37,469.56c-2.4,5.85-4.76,11.7-5.31,18.1a29.93,29.93,0,0,0,1.65,12.77l-3.64-.06c.54-1.46-.3-2.66-.8-3.88q-2.84-6.86-5.8-13.66c-.62-1.4-.88-2.46.75-3.4,3.17-1.84,5.32-4.75,7.53-7.58Z" transform="translate(-408.26 -250.6)"/><path class="cls-8" d="M555.16,473.85a28.66,28.66,0,0,1-4.7,14.55,11.29,11.29,0,0,1-6,4.84c-3.44,1.05-6.19-.67-6.15-4.26a28.19,28.19,0,0,1,7.06-18.79,4.87,4.87,0,0,1,.82-.75c2-1.57,4.32-3,6.84-1.75S555.06,471.44,555.16,473.85ZM541,485.38c.28,1.55-.79,3.79,1.38,4.86a4,4,0,0,0,4.53-.7c4.7-4.1,6.32-9.48,6-15.43-.18-3.35-2.92-4.31-5.53-2.24A16.31,16.31,0,0,0,541,485.38Z" transform="translate(-408.26 -250.6)"/><path class="cls-7" d="M526.07,500.37l3.64.06,3.75,3.71,1.08.55a.37.37,0,0,1,.43.14,8.39,8.39,0,0,0,7.53.05c2.12.06,3.26-2,5.14-2.43l.85-.72-.07,0,.94-.63.25-.16,1.11-.9.62-.51c2.82.18,3.9-2.3,5.69-3.71.64-.5,1.15-1.56,2.15-1s.61,1.54.45,2.36c-.23,1.21-.73,2.38-.26,3.63l-.16.17a1.23,1.23,0,0,0-.65,1.27c-.53.47-1.17.89-.95,1.77-3.05-2-5.9-1.52-9,.15-6.28,3.35-12.73,4.37-19.08,0-1.83-1.27-3.77-.71-5.77-.53-2.25.19-4.44,2-6.8.43l.85-.79a2.21,2.21,0,0,0,2.26-.74h0a2.18,2.18,0,0,0,2.27-.78h0a2.11,2.11,0,0,0,2.29-.81Z" transform="translate(-408.26 -250.6)"/><path class="cls-1" d="M533.37,469.56l-5.62,2.29,2.55-6.15a21,21,0,0,0,7.1-4.22l1.4-.29Z" transform="translate(-408.26 -250.6)"/><path class="cls-8" d="M538.8,461.19l-1.4.29-.26-.28c.41-2.85,4.48-2.86,4.6-5.93l-.07,0,3.16.09Z" transform="translate(-408.26 -250.6)"/><path class="cls-8" d="M542.5,504.88a8.39,8.39,0,0,1-7.53-.05Z" transform="translate(-408.26 -250.6)"/><path class="cls-8" d="M544.8,455.4c.56-2.31,2.33-2.29,4.15-2.17A10.61,10.61,0,0,1,544.8,455.4Z" transform="translate(-408.26 -250.6)"/><path class="cls-8" d="M549.11,453.19a2.38,2.38,0,0,1,2.41-.83C551,453.5,550,453.08,549.11,453.19Z" transform="translate(-408.26 -250.6)"/><path class="cls-8" d="M558.63,453.09a1.32,1.32,0,0,1,1.76,1A1.85,1.85,0,0,1,558.63,453.09Z" transform="translate(-408.26 -250.6)"/><path class="cls-8" d="M548.49,501.73l-.85.72Z" transform="translate(-408.26 -250.6)"/><path class="cls-8" d="M534.54,504.69l-1.08-.55Z" transform="translate(-408.26 -250.6)"/><path class="cls-8" d="M550.72,500.07l-1.11.9Z" transform="translate(-408.26 -250.6)"/><path class="cls-8" d="M549.36,501.13l-.94.63Z" transform="translate(-408.26 -250.6)"/><path class="cls-6" d="M516.93,504.09c2.36,1.56,4.55-.24,6.8-.43,2-.18,3.94-.74,5.77.53,6.35,4.38,12.8,3.36,19.08,0,3.13-1.67,6-2.18,9-.15l1.32.87c.25.9.58,1.59,1.57.64l2.89.16.12,2c-1.77,1.58-3.59,0-5.34,0-5.16-.23-10.12,1-15.17,1.53-7.11.81-14.2-.4-21.17-1.57-7.46-1.25-14.62-.13-21.85,1.19a6.24,6.24,0,0,1-1.09.28c-10.18-.08-20.36,1.3-30.55,0-7.27-.92-14.65-.63-21.88-2.07-1.94-.39-3.93-.54-5.9-.79l-.09-1.88.81-.34a1.73,1.73,0,0,1,.71.18c1.33,1,2.88.54,4.34.64,8.62.61,17.37-1.53,25.88,1.33.35.11.88-.34,1.33-.53l1.49,0c1.58,1.14,3.28.58,5,.4,5-.53,9.93-1.7,15-1,1.13,1.57,2.26,1.89,3.4,0l1.37-.12c1.9,1.21,3.84.17,5.23-.63,3.37-2,6.61-3,10.3-1.19A1.54,1.54,0,0,0,516.93,504.09Z" transform="translate(-408.26 -250.6)"/><path class="cls-8" d="M470.79,500.14c-.37-2.81,1.5-6.55-.57-8.16-1.63-1.28-5.21,0-7.93,0-1.43,0-2.87,0-5,0,1.64-2.48,2.87-4.43,4.2-6.31,4.36-6.17,8.83-12.27,13.09-18.5,1-1.48,1.38-3.39,2-5.11l2.25.87q-3.35,18.67-6.7,37.35Zm2.72-19.36c0-1.68,0-2.87-1.25-3.41s-1.86.29-2.62.95c-2.49,2.17-4,5-5.82,7.74a2.06,2.06,0,0,0,.69,3.19c1.91,1.25,6.93-.28,7.61-2.46S473.14,482.45,473.51,480.78Z" transform="translate(-408.26 -250.6)"/><path class="cls-7" d="M473.54,505.69c-.45.19-1,.64-1.33.53-8.51-2.86-17.26-.72-25.88-1.33-1.46-.1-3,.36-4.34-.64,3.7-.67,7.61.59,11.18-1.23,3.56,0,7.14.23,10.64-.69l1.32-.07a3.72,3.72,0,0,0,3.36-.17l1.94-.23,1.18,1.41c-.4,1.8,1,1.43,1.92,1.55Z" transform="translate(-408.26 -250.6)"/><path class="cls-8" d="M449.4,469.09a.78.78,0,0,1-.14-.69A44.25,44.25,0,0,1,461,467.16l-9.85,13-.36-.33c.62-2.73,2.76-4.6,3.91-7s.22-3.55-2.06-3.92A14.58,14.58,0,0,0,449.4,469.09Z" transform="translate(-408.26 -250.6)"/><path class="cls-7" d="M441.28,504.07l-.81.34-.78-.3c.26-.71.73-1.49-.6-1.62,0-.71-.09-1.43-.13-2.14.05-1.84,0-3.68.17-5.51.17-2.18.69-4.19,3.44-4.4.1.34.19.67.28,1C440,495.36,441.48,499.82,441.28,504.07Z" transform="translate(-408.26 -250.6)"/><path class="cls-7" d="M447.79,466.71c-1.76-2.64-1-6.81,1.6-9.23C448.86,460.55,448.32,463.63,447.79,466.71Z" transform="translate(-408.26 -250.6)"/><path class="cls-1" d="M478.85,463l-2.25-.87c.24-1.67.11-3.44,1.27-4.87l2,.13A13,13,0,0,1,478.85,463Z" transform="translate(-408.26 -250.6)"/><path class="cls-13" d="M463.81,502.33c-3.5.92-7.08.71-10.64.69A34.3,34.3,0,0,1,463.81,502.33Z" transform="translate(-408.26 -250.6)"/><path class="cls-13" d="M471.61,503.27l-1.18-1.41.36-1.72,1.36.2A4,4,0,0,1,471.61,503.27Z" transform="translate(-408.26 -250.6)"/><path class="cls-8" d="M449.91,482l-1.56,2.14-.4-.37a3.36,3.36,0,0,1,1.56-2.2C449.64,481.69,449.78,481.83,449.91,482Z" transform="translate(-408.26 -250.6)"/><path class="cls-8" d="M445.52,488l-1.58,2.19c-.13-.13-.27-.24-.41-.36l.77-2.23h.75A5.85,5.85,0,0,0,445.52,488Z" transform="translate(-408.26 -250.6)"/><path class="cls-13" d="M468.49,502.09a3.72,3.72,0,0,1-3.36.17A4.11,4.11,0,0,1,468.49,502.09Z" transform="translate(-408.26 -250.6)"/><path class="cls-8" d="M451.19,480.2,449.91,482c-.13-.14-.27-.28-.4-.43a2.25,2.25,0,0,1,1.32-1.67Z" transform="translate(-408.26 -250.6)"/><path class="cls-8" d="M447.74,485l-1,1.3-.36-.31.89-1.39A5.82,5.82,0,0,0,447.74,485Z" transform="translate(-408.26 -250.6)"/><path class="cls-8" d="M442.85,491.45c-.09-.34-.18-.67-.28-1a4.29,4.29,0,0,0,.23-.63l.37,0,.36,0c.14.12.28.23.41.36Z" transform="translate(-408.26 -250.6)"/><path class="cls-8" d="M448.35,484.11l-.61.85a5.82,5.82,0,0,1-.45-.4l.66-.82Z" transform="translate(-408.26 -250.6)"/><path class="cls-8" d="M446.76,486.26l-.63.89-.38-.38.65-.83Z" transform="translate(-408.26 -250.6)"/><path class="cls-8" d="M446.13,487.15l-.61.82a5.85,5.85,0,0,1-.47-.4l.7-.8Z" transform="translate(-408.26 -250.6)"/><path class="cls-4" d="M558.93,504.92l-1.32-.87c-.22-.88.42-1.3.95-1.77l.65-1.27.16-.17a168.16,168.16,0,0,0,11-19.95,7.35,7.35,0,0,0,.35-4.75c-.86-4.66-1.58-9.36-2.76-13.94-.75-2.93,0-4.42,2.83-5.21a5.48,5.48,0,0,0,3.25-1.67l0,0a1.7,1.7,0,0,0,1.86-.74l.2-.06a1.11,1.11,0,0,0,1.28-.49c1.24-.09,1.31.91,1.59,1.71a27,27,0,0,0,1.93,11.12l4.65-10.84c.7-1.31,1.66-1.5,3.07-1.05,2.34.74,4.75,1.24,7.13,1.84l.8.78a.88.88,0,0,0-.07.62c-4,5.83-6.89,12.29-10.06,18.59a8.16,8.16,0,0,0-.71,5.73c1.41,6.41,2.73,12.85,4.09,19.27l0,0-10.51,3.08-2.37.43-.62-1.2a55.37,55.37,0,0,0-.84-11.36c-1.91,4-3.65,7.1-4.66,10.55-.72,1-1.34,2.11-2.83,2a23.39,23.39,0,0,0-7.41-.58.62.62,0,0,0-.63-.05c-.31-.32-.58-.26-.81.08Z" transform="translate(-408.26 -250.6)"/><path class="cls-7" d="M589.74,501.83c-1.36-6.42-2.68-12.86-4.09-19.27a8.16,8.16,0,0,1,.71-5.73c3.17-6.3,6-12.76,10.06-18.59.78.61.7,1.46.66,2.31-3.56,7.28-6.49,14.79-6.61,23-.08,6.06.43,12.13.68,18.19Z" transform="translate(-408.26 -250.6)"/><path class="cls-6" d="M591.15,501.74c-.25-6.06-.76-12.13-.68-18.19.12-8.21,3-15.72,6.61-23,1.26,2.77.36,5.64-.33,8.19a92.06,92.06,0,0,0-3.39,25.73C593.4,496.9,594,500,591.15,501.74Z" transform="translate(-408.26 -250.6)"/><path class="cls-7" d="M576.27,504.12l.62,1.2-.26.26c-.74.7-1.51.33-2.35.21-1.94-.27-3.85-.22-4.78,2l-6,0-.12-2,4.55-.41c1.49.11,2.11-1,2.83-2C572.94,501.33,574.94,500.43,576.27,504.12Z" transform="translate(-408.26 -250.6)"/><path class="cls-6" d="M569.5,507.8c.93-2.23,2.84-2.28,4.78-2,.84.12,1.61.49,2.35-.21l2.61.12c.87.83,2,.48,3,.6C578.3,509.41,574,509.06,569.5,507.8Z" transform="translate(-408.26 -250.6)"/><path class="cls-7" d="M582.24,506.3c-1-.12-2.13.23-3-.6,0-.27,0-.54,0-.81l10.51-3.08A2.32,2.32,0,0,1,589,504a2.72,2.72,0,0,0-2.34,1.43C585.29,506.39,583.74,506.21,582.24,506.3Z" transform="translate(-408.26 -250.6)"/><path class="cls-6" d="M586.61,505.42A2.72,2.72,0,0,1,589,504C588.79,505.48,587.77,505.57,586.61,505.42Z" transform="translate(-408.26 -250.6)"/><path class="cls-7" d="M596.49,457.62l-.8-.78.86-.26Z" transform="translate(-408.26 -250.6)"/><path class="cls-6" d="M439.09,502.49c1.33.13.86.91.6,1.62H439C439.06,503.58,439.08,503,439.09,502.49Z" transform="translate(-408.26 -250.6)"/><path class="cls-10" d="M487.79,434.39c0,1.86.17,3.73,0,5.58-.19,2.83.25,5.42,2.17,7.62,0,.5,0,1,0,1.49-4.09-1.2-7-4.31-10.4-6.58a1,1,0,0,1,1.18-.61c4.93.83,4.93.83,5-4.32C485.73,434.22,485.73,434.22,487.79,434.39Z" transform="translate(-408.26 -250.6)"/><path class="cls-7" d="M445.75,486.77l-.7.8h-.75c.05-3.1,2.53-4.93,3.9-7.34,2-3.57,4.37-7,1.2-11.14a15.18,15.18,0,0,1,3.28-.17c2.28.37,3.16,1.57,2.06,3.92s-3.29,4.31-3.91,7a2.25,2.25,0,0,0-1.32,1.67,3.36,3.36,0,0,0-1.56,2.2l-.66.82L446.4,486C446.18,486.22,446,486.49,445.75,486.77Z" transform="translate(-408.26 -250.6)"/><path class="cls-7" d="M443.53,489.8l-.36,0-.37,0c-.07-1.12.09-2.1,1.5-2.24C444,488.31,443.79,489.05,443.53,489.8Z" transform="translate(-408.26 -250.6)"/><path class="cls-8" d="M585.49,456.05l-4.65,10.84a27,27,0,0,1-1.93-11.12C581,459.22,583.22,457.77,585.49,456.05Z" transform="translate(-408.26 -250.6)"/><path class="cls-8" d="M575.84,454.61a1.7,1.7,0,0,1-1.86.74A1.45,1.45,0,0,1,575.84,454.61Z" transform="translate(-408.26 -250.6)"/><path class="cls-8" d="M577.32,454.06a1.11,1.11,0,0,1-1.28.49Z" transform="translate(-408.26 -250.6)"/><path class="cls-8" d="M491.54,449.3c1.52-.18,2.36,1.12,3.55,1.66-1,1.79-3.86,1-4.59,3.22l-1.07.15c-.39-.42-.71-.28-1,.13l-.88-.06c-.89-2.85-5-2-5.74-5C485.06,450,488.31,450.69,491.54,449.3Z" transform="translate(-408.26 -250.6)"/><path class="cls-8" d="M490,449.08c0-.5,0-1,0-1.49.7.41,1.48.75,1.56,1.73Z" transform="translate(-408.26 -250.6)"/><path class="cls-4" d="M489.43,454.33l1.07-.15c3.39-.14,6.79-.08,10.11-.95l1.19-.07a13.69,13.69,0,0,1-2,8.83l-6.95.15c-2.28-.47-3.15.57-3,2.75a10.32,10.32,0,0,0-.91,4.58c-1.42,5-1.42,5,3.73,4.78l4.06-.15.6.66c-1.56,2.05.59,5.58-1.92,6.74-2.22,1-5.1.6-7.68.83a.72.72,0,0,0-.89.68c-.45,2.3-.91,4.61-1.36,6.91a.4.4,0,0,0-.09.5c-.19,1.05-.39,2.1-.58,3.15-.52.88-.48,1.43.76,1.27,2.2-.33,4.4-.68,6.6-1,.71-.1,1.47-.37,2,.4,1.44,2-.72,7.18-3.18,7.6l-17.53,3c-1-.12-2.32.25-1.92-1.55a4,4,0,0,0,.54-2.93q3.35-18.68,6.7-37.35a13,13,0,0,0,1.06-5.61c.15-2.1,1.64-2.43,3.31-2.56,1.45-.12,2.9-.28,4.34-.42l.88.06Z" transform="translate(-408.26 -250.6)"/><path class="cls-13" d="M543.29,439.76l4.1,1.24-1,1.65c-.35.43-.21.66.29.75L551.4,442c1.1.83,1.51.1,1.84-.82l1.72-.85c1.47.38,2.51-.53,3.68-1.15,1.33-.7,2.35-2.28,4.2-1.63-1,1.11-2,2.21-3,3.32l-6.15,5.3-12.06,9.14.07,0c-1.35.39-2-.42-2.4-1.49,0-1.7-2.33-3.67-.17-5,3.21-2,3.44-5.05,3.76-8.19Z" transform="translate(-408.26 -250.6)"/><path class="cls-10" d="M562.84,437.53c-1.85-.65-2.87.93-4.2,1.63-1.17.62-2.21,1.53-3.68,1.15l2.06-2.1c7.53-4.88,11.54-12,13.25-20.65.2-1-.22-2.29,1-3,1.47,4.6-.11,8.74-1.92,12.86-.48,1.09-1.57,2-1.06,3.4l-.1-.14c-.9.11-1.12.79-1.25,1.53.25,1.17-1.23,1.41-1.27,2.42-1-.08-1.39.29-1.16,1.28Z" transform="translate(-408.26 -250.6)"/><path class="cls-13" d="M564.47,435.88c-.23-1,.21-1.36,1.16-1.28Z" transform="translate(-408.26 -250.6)"/><path class="cls-11" d="M566.9,432.18c.13-.74.35-1.42,1.25-1.53C568.46,431.76,568,432.21,566.9,432.18Z" transform="translate(-408.26 -250.6)"/><path class="cls-3" d="M520,361.59c1.62.25,2.84-.66,4.12-1.43,13-7.71,23.77-17.84,33.21-29.52.68-.83,1.14-2,2.51-2-1.8,5.45-5.34,9.82-9,14-12.46,14.17-27.32,24.59-46,29a7.19,7.19,0,0,1-4.13.19C507.72,369,513.81,365.22,520,361.59Z" transform="translate(-408.26 -250.6)"/><path class="cls-3" d="M559.76,328.68c.27-.52.54-1,.8-1.56C560.45,327.72,560.4,328.35,559.76,328.68Z" transform="translate(-408.26 -250.6)"/><path class="cls-5" d="M571.23,414.53c-1.18.74-.76,2-1,3-1.71,8.63-5.72,15.77-13.25,20.65-1.58-.13-3.1-.38-4.1-1.8l3.18-4.24c.15-.16.46-.41.43-.46-.25-.41-.57-.25-.87,0-1.73.4-3.51.67-4.91,1.9l-2.19,0c8.15-6,15.61-12.64,20.82-21.48a1.9,1.9,0,0,1,1.53-.88C571,412.3,571.12,413.41,571.23,414.53Z" transform="translate(-408.26 -250.6)"/><path class="cls-5" d="M532.3,391.14c-2.16,5.27-5.91,9.46-9.41,13.82-2.09.94-3.35,2.89-5.16,4.18-4.47,3.18-9,6.33-14.61,7.05,2.73-3,6.62-4.59,9.6-8.3l-16.11,2c-1.69-.51-3.74.07-5.25-1.71,7.09-1.22,14-2.45,20.82-4.24a30.44,30.44,0,0,0,16.2-9.92,45.37,45.37,0,0,1,3.44-3.35Z" transform="translate(-408.26 -250.6)"/><path class="cls-3" d="M552.08,409.46c3.41-2.56,6.1-6,9.83-8.25.83,1.19.1,1.72-.33,2.21-7.31,8.39-13.55,17.45-17.55,27.92-3.55-.5-7.3,1.09-10.7-1,1.13-2.73,2.36-5.38,4.9-7.49.76,1.84-1.07,2.64-.22,4.09,2-1.36,2.6-3.61,4-5.26C545.43,417.64,548.73,413.53,552.08,409.46Z" transform="translate(-408.26 -250.6)"/><path class="cls-10" d="M552.08,409.46c-3.35,4.07-6.65,8.18-10.07,12.2-1.4,1.65-2,3.9-4,5.26-.85-1.45,1-2.25.22-4.09-2.54,2.11-3.77,4.76-4.9,7.49-2.09,3-2.7,6.51-3.31,10-.1,3.31-.68,6.41-3.84,8.32l-2.1.29-.75-1.27c-.3-1.28-.46-2.54,1-3.27,2.2-1.12,2.55-3.15,2.89-5.3,1.16-7.22,4-13.86,10.19-17.86,4.75-3.08,8.29-7.2,12.4-10.83C550.41,409.85,551.08,409.21,552.08,409.46Z" transform="translate(-408.26 -250.6)"/><path class="cls-13" d="M523.33,447.67l.75,1.26,0,1.64c-.17.15-.34.32-.51.49-3.39-1.16-1.19,1.63-1.74,2.48a97.27,97.27,0,0,0-17.74,2.38l-.23-3,.54-5c5.53.32,11.12-.66,16.62.62A2.45,2.45,0,0,0,523.33,447.67Z" transform="translate(-408.26 -250.6)"/><path class="cls-5" d="M530,440.33c.61-3.5,1.22-7,3.31-10,3.4,2.11,7.15.52,10.7,1,.15,2.84-1.28,5.54-.74,8.42l-.36.81Z" transform="translate(-408.26 -250.6)"/><path class="cls-10" d="M496.61,409.88l16.11-2c-3,3.71-6.87,5.3-9.6,8.3,5.66-.72,10.14-3.87,14.61-7.05,1.81-1.29,3.07-3.24,5.16-4.18-3.67,7-9.75,10.88-17.16,12.75-2.13.54-4.44,1.58-7.15.39l6.12-6.42C502,410,498.75,412.64,496.61,409.88Z" transform="translate(-408.26 -250.6)"/><path class="cls-10" d="M570.91,411.18a1.9,1.9,0,0,0-1.53.88c-5.21,8.84-12.67,15.49-20.82,21.48-.76.14-1.58.19-1.92-.61s.48-1.07,1-1.36a63.2,63.2,0,0,0,22.1-23.19A2.59,2.59,0,0,1,570.91,411.18Z" transform="translate(-408.26 -250.6)"/><path class="cls-6" d="M552.92,436.41c1,1.42,2.52,1.67,4.1,1.8l-2.06,2.1-1.73.85a1.81,1.81,0,0,0-1.83.82l-4.77,1.42-.29-.75,1-1.65,1.38-1.24C550.61,439.22,551.3,437.24,552.92,436.41Z" transform="translate(-408.26 -250.6)"/><path class="cls-7" d="M504.37,447.88l-.54,5-2,.25-1.2.07c-.09-.87-.19-1.73-.28-2.59l.3-3.66h3.53C504.22,447.28,504.3,447.58,504.37,447.88Z" transform="translate(-408.26 -250.6)"/><path class="cls-10" d="M552.92,436.41c-1.62.83-2.31,2.81-4.15,3.35-.46-2.42,3.23-3.51,2-6.18,1.4-1.23,3.18-1.5,4.91-1.9a4.06,4.06,0,0,0,.44.49Z" transform="translate(-408.26 -250.6)"/><path class="cls-3" d="M563.27,401.32c-.33.17-.66.45-1,.44s-.65-.4-.27-.74a1.73,1.73,0,0,1,.91-.3C563,400.71,563.14,401.07,563.27,401.32Z" transform="translate(-408.26 -250.6)"/><path class="cls-5" d="M531.82,390.66c.16-.33.39-.6.73-.31.08.07-.16.51-.25.79Z" transform="translate(-408.26 -250.6)"/><path class="cls-3" d="M492.63,321.53c-2.61,6.89-7.22,12-12.87,16.21a58.1,58.1,0,0,1-22.38,9.93c-.72.16-1.51.65-2.1,0s0-1.43.36-2c2-3.46,4-6.89,6-10.35.84-1.49,2.22-1.43,3.59-1.39,3.53.11,6.86-.84,10.26-1.83-3.48-.56-6.92-1.13-10.19-3.11A116.72,116.72,0,0,0,492.63,321.53Z" transform="translate(-408.26 -250.6)"/><path class="cls-10" d="M499,341.37a1,1,0,0,1,.13-.25s.14,0,.21,0l-.36.26Z" transform="translate(-408.26 -250.6)"/><path class="cls-10" d="M484,339.78l.47-.27-.24.5Z" transform="translate(-408.26 -250.6)"/><path class="cls-3" d="M525.37,389.44c-.21.52-.73.81-1.07.46-.51-.52.27-.64.51-.92Z" transform="translate(-408.26 -250.6)"/><path class="cls-3" d="M524.81,389l1-1.34.73.84-1.15,1Z" transform="translate(-408.26 -250.6)"/><path class="cls-13" d="M500.32,450.64c.09.86.19,1.72.28,2.59-3.31.87-6.71.81-10.1.95.73-2.21,3.56-1.43,4.59-3.22Z" transform="translate(-408.26 -250.6)"/><path class="cls-11" d="M540.87,403.45c.17-.14.43-.42.48-.39.39.26.21.55,0,.82Z" transform="translate(-408.26 -250.6)"/><polygon class="cls-3" points="56.68 163.62 56.75 163.84 56.57 163.82 56.68 163.62"/><path class="cls-4" d="M504.06,455.92a97.27,97.27,0,0,1,17.74-2.38c2.74,0,5,1.22,7.19,2.75l.4.59a20.94,20.94,0,0,1,.91,8.82l-2.55,6.15c-2.21,2.83-4.36,5.74-7.53,7.58-1.63.94-1.37,2-.75,3.4q3,6.8,5.8,13.66c.5,1.22,1.34,2.42.8,3.88l-1.54.62a2.59,2.59,0,0,0-2.29.81h0a2.48,2.48,0,0,0-2.27.78h0a2.69,2.69,0,0,0-2.26.74l-.85.79a1.54,1.54,0,0,1-1.63-1,2.42,2.42,0,0,0-.4-2c-.24-4.48-3.2-8.25-3.37-12.74a11.24,11.24,0,0,0-1.52-5.5c-1.33,2.18-1.17,4.29-1.72,6.19q-.87,6-1.73,12L505,502.53a2.66,2.66,0,0,0-2.38.64l.07,0a4.16,4.16,0,0,0-3.06.81l0,0-4.5.54-.24-1.07a265.82,265.82,0,0,0,5.48-28.28,7.79,7.79,0,0,0,.76-4.14C502.8,466.08,502.36,460.8,504.06,455.92Zm8.28,15.25c-.31.89-1.18,1.92-.25,2.71s1.9-.11,2.72-.58c2.7-1.56,5.33-3.21,7.08-5.92a2.12,2.12,0,0,0-.68-3.42,5.6,5.6,0,0,0-8.64,3.91A32.85,32.85,0,0,0,512.34,471.17Z" transform="translate(-408.26 -250.6)"/><path class="cls-7" d="M541,485.38a16.31,16.31,0,0,1,6.38-13.51c2.61-2.07,5.35-1.11,5.53,2.24.32,5.95-1.3,11.33-6,15.43a4,4,0,0,1-4.53.7C540.19,489.17,541.26,486.93,541,485.38Z" transform="translate(-408.26 -250.6)"/><path class="cls-8" d="M520,502.57a2.48,2.48,0,0,1,2.27-.78A2.18,2.18,0,0,1,520,502.57Z" transform="translate(-408.26 -250.6)"/><path class="cls-8" d="M522.24,501.8a2.59,2.59,0,0,1,2.29-.81A2.11,2.11,0,0,1,522.24,501.8Z" transform="translate(-408.26 -250.6)"/><path class="cls-8" d="M517.78,503.3a2.69,2.69,0,0,1,2.26-.74A2.21,2.21,0,0,1,517.78,503.3Z" transform="translate(-408.26 -250.6)"/><path class="cls-8" d="M559.21,501l-.65,1.27A1.23,1.23,0,0,1,559.21,501Z" transform="translate(-408.26 -250.6)"/><path class="cls-8" d="M530.3,465.7a20.94,20.94,0,0,0-.91-8.82,2.57,2.57,0,0,1,2.05,1.86c1,2.91,3,3.49,5.7,2.46l.26.28A21,21,0,0,1,530.3,465.7Z" transform="translate(-408.26 -250.6)"/><path class="cls-7" d="M537.14,461.2c-2.69,1-4.67.45-5.7-2.46a2.57,2.57,0,0,0-2.05-1.86l-.4-.59-.6-3.32c3.59,1,7.28.82,11,.81.45,1.07,1,1.88,2.4,1.49C541.62,458.34,537.55,458.35,537.14,461.2Z" transform="translate(-408.26 -250.6)"/><path class="cls-8" d="M500.43,475.12A266.12,266.12,0,0,1,495,503.39c-6.84-1-13.34,1-19.92,2.26l-1.49,0c0-.29,0-.58,0-.87l17.53-3c2.46-.42,4.62-5.58,3.18-7.6-.55-.77-1.31-.5-2-.4-2.2.32-4.4.67-6.6,1-.26-.42-.51-.85-.76-1.27.19-1.05.39-2.1.58-3.15.08,0,.22-.08.22-.1a3.7,3.7,0,0,0-.13-.4c.45-2.3.91-4.61,1.36-6.91l.89-.68c2.58-.23,5.46.19,7.68-.83,2.51-1.16.36-4.69,1.92-6.74Z" transform="translate(-408.26 -250.6)"/><path class="cls-7" d="M514.9,501.1a2.42,2.42,0,0,1,.4,2c-3.69-1.77-6.93-.76-10.3,1.19-1.39.8-3.33,1.84-5.23.63,0-.33-.06-.66-.08-1l0,0c1.14.15,2.26.27,3.06-.81l-.07,0a2.2,2.2,0,0,0,2.38-.64l1.53-1.44c2-1.11,1.44-4.91,4-4.76C512.85,496.47,513,499.82,514.9,501.1Z" transform="translate(-408.26 -250.6)"/><path class="cls-7" d="M475,505.65c6.58-1.26,13.08-3.26,19.92-2.26l.24,1.07.09.33L495,505c-5.07-.69-10,.48-15,1C478.31,506.23,476.61,506.79,475,505.65Z" transform="translate(-408.26 -250.6)"/><path class="cls-8" d="M567.94,505.31l-4.55.41-2.89-.16,0-.83A23.39,23.39,0,0,1,567.94,505.31Z" transform="translate(-408.26 -250.6)"/><path class="cls-7" d="M498.4,505c-1.14,1.89-2.27,1.57-3.4,0l.28-.25Z" transform="translate(-408.26 -250.6)"/><path class="cls-8" d="M498.4,505l-3.12-.25-.09-.33,4.5-.54c0,.34.05.67.08,1Z" transform="translate(-408.26 -250.6)"/><path class="cls-7" d="M560.53,504.73l0,.83c-1,.95-1.32.26-1.57-.64l.16-.16.81-.08A.62.62,0,0,1,560.53,504.73Z" transform="translate(-408.26 -250.6)"/><path class="cls-7" d="M473.51,480.78c-.37,1.67-.73,3.89-1.39,6s-5.7,3.71-7.61,2.46a2.06,2.06,0,0,1-.69-3.19c1.79-2.7,3.33-5.57,5.82-7.74.76-.66,1.51-1.43,2.62-.95S473.51,479.1,473.51,480.78Z" transform="translate(-408.26 -250.6)"/><path class="cls-8" d="M576.27,504.12c-1.33-3.69-3.33-2.79-5.5-.81,1-3.45,2.75-6.57,4.66-10.55A55.37,55.37,0,0,1,576.27,504.12Z" transform="translate(-408.26 -250.6)"/><path class="cls-8" d="M579.26,504.89c0,.27,0,.54,0,.81l-2.61-.12.26-.26Z" transform="translate(-408.26 -250.6)"/><path class="cls-8" d="M559.9,504.68l-.81.08C559.32,504.42,559.59,504.36,559.9,504.68Z" transform="translate(-408.26 -250.6)"/><path class="cls-13" d="M489.43,454.33l-1,.13C488.72,454.05,489,453.91,489.43,454.33Z" transform="translate(-408.26 -250.6)"/><path class="cls-8" d="M504.06,455.92c-1.7,4.88-1.26,10.16-2.87,15.05-4.12-1.36-7.55-4-11.29-6.08-.19-2.18.68-3.22,3-2.75,1,.68,2,1.4,3.05,2,3.68,2.15,3.77,2.09,3.9-2.16a13.69,13.69,0,0,0,2-8.83l2-.25C503.9,453.92,504,454.92,504.06,455.92Z" transform="translate(-408.26 -250.6)"/><path class="cls-1" d="M489.9,464.89c3.74,2.07,7.17,4.72,11.29,6.08a7.79,7.79,0,0,1-.76,4.14l-3.05-.35-.6-.66c-2.09-2.41-5.13-3.19-7.79-4.63A10.32,10.32,0,0,1,489.9,464.89Z" transform="translate(-408.26 -250.6)"/><path class="cls-8" d="M489,469.47c2.66,1.44,5.7,2.22,7.79,4.63l-4.06.15C487.57,474.43,487.57,474.43,489,469.47Z" transform="translate(-408.26 -250.6)"/><path class="cls-13" d="M499.81,462c-.13,4.25-.22,4.31-3.9,2.16-1.05-.61-2-1.33-3.05-2Z" transform="translate(-408.26 -250.6)"/><path class="cls-1" d="M484.86,493.57c.25.42.5.85.76,1.27C484.38,495,484.34,494.45,484.86,493.57Z" transform="translate(-408.26 -250.6)"/><path class="cls-1" d="M487.78,482.33l-.89.68A.72.72,0,0,1,487.78,482.33Z" transform="translate(-408.26 -250.6)"/><path class="cls-1" d="M485.53,489.92a3.7,3.7,0,0,1,.13.4s-.14.07-.22.1A.4.4,0,0,1,485.53,489.92Z" transform="translate(-408.26 -250.6)"/><path class="cls-6" d="M539.34,453.78c-3.67,0-7.36.22-11-.81a10.59,10.59,0,0,1-2.21-4.32c3.16-1.91,3.74-5,3.84-8.32l12.91.24c-.32,3.14-.55,6.17-3.76,8.19C537,450.11,539.36,452.08,539.34,453.78Z" transform="translate(-408.26 -250.6)"/><path class="cls-10" d="M551.4,442a1.81,1.81,0,0,1,1.83-.82C552.91,442.08,552.5,442.81,551.4,442Z" transform="translate(-408.26 -250.6)"/><path class="cls-10" d="M546.63,443.4c-.5-.09-.64-.32-.29-.75C546.43,442.9,546.53,443.15,546.63,443.4Z" transform="translate(-408.26 -250.6)"/><path class="cls-10" d="M555.66,431.68c.3-.22.62-.38.87,0,0,.05-.28.3-.43.46A4.06,4.06,0,0,1,555.66,431.68Z" transform="translate(-408.26 -250.6)"/><path class="cls-8" d="M526.18,448.65a10.59,10.59,0,0,0,2.21,4.32l.6,3.32c-2.17-1.53-4.45-2.75-7.19-2.75.55-.85-1.65-3.64,1.75-2.48.24.23.52.48.76,0,.05-.1-.16-.35-.26-.53l0-1.64Z" transform="translate(-408.26 -250.6)"/><path class="cls-8" d="M514.9,501.1c-1.86-1.28-2-4.63-4.32-4.77-2.58-.15-2,3.65-4,4.76q.85-6,1.73-12c1.08-.25,2-1,3.24-.69C511.7,492.85,514.66,496.62,514.9,501.1Z" transform="translate(-408.26 -250.6)"/><path class="cls-13" d="M512.34,471.17a32.85,32.85,0,0,1,.23-3.3,5.6,5.6,0,0,1,8.64-3.91,2.12,2.12,0,0,1,.68,3.42C518.32,467.67,515.8,470.6,512.34,471.17Z" transform="translate(-408.26 -250.6)"/><path class="cls-8" d="M512.34,471.17c3.46-.57,6-3.5,9.55-3.79-1.75,2.71-4.38,4.36-7.08,5.92-.82.47-1.83,1.33-2.72.58S512,472.06,512.34,471.17Z" transform="translate(-408.26 -250.6)"/><path class="cls-1" d="M511.53,488.36c-1.19-.28-2.16.44-3.24.69.55-1.9.39-4,1.72-6.19A11.24,11.24,0,0,1,511.53,488.36Z" transform="translate(-408.26 -250.6)"/><path class="cls-8" d="M502.72,503.14c-.8,1.08-1.92,1-3.06.81A4.16,4.16,0,0,1,502.72,503.14Z" transform="translate(-408.26 -250.6)"/><path class="cls-8" d="M505,502.53a2.2,2.2,0,0,1-2.38.64A2.66,2.66,0,0,1,505,502.53Z" transform="translate(-408.26 -250.6)"/><path class="cls-13" d="M524.05,450.57c.1.18.31.43.26.53-.24.44-.52.19-.76,0C523.71,450.89,523.88,450.72,524.05,450.57Z" transform="translate(-408.26 -250.6)"/></svg>